<?xml version="1.0" encoding="UTF-8" standalone="no"?>
<!DOCTYPE svg PUBLIC "-//W3C//DTD SVG 1.1//EN"
 "http://www.w3.org/Graphics/SVG/1.1/DTD/svg11.dtd">
<!-- Generated by graphviz version 2.43.0 (0)
 -->
<!-- Title: %3 Pages: 1 -->
<svg width="1457pt" height="1749pt"
 viewBox="0.00 0.00 1456.94 1749.14" xmlns="http://www.w3.org/2000/svg" xmlns:xlink="http://www.w3.org/1999/xlink">
<g id="graph0" class="graph" transform="scale(1 1) rotate(0) translate(4 1745.14)">
<title>%3</title>
<polygon fill="white" stroke="transparent" points="-4,4 -4,-1745.14 1452.94,-1745.14 1452.94,4 -4,4"/>
<text text-anchor="middle" x="724.47" y="-172.8" font-family="Times,serif" font-size="14.00">Namespaces:</text>
<text text-anchor="middle" x="724.47" y="-157.8" font-family="Times,serif" font-size="14.00">foaf: http://xmlns.com/foaf/0.1/</text>
<text text-anchor="middle" x="724.47" y="-142.8" font-family="Times,serif" font-size="14.00">dcterms: http://purl.org/dc/terms/</text>
<text text-anchor="middle" x="724.47" y="-127.8" font-family="Times,serif" font-size="14.00">cc: http://creativecommons.org/ns#</text>
<text text-anchor="middle" x="724.47" y="-112.8" font-family="Times,serif" font-size="14.00">owl: http://www.w3.org/2002/07/owl#</text>
<text text-anchor="middle" x="724.47" y="-97.8" font-family="Times,serif" font-size="14.00">vann: http://purl.org/vocab/vann/</text>
<text text-anchor="middle" x="724.47" y="-82.8" font-family="Times,serif" font-size="14.00">http://ontology.qworum.net/c/</text>
<text text-anchor="middle" x="724.47" y="-67.8" font-family="Times,serif" font-size="14.00">qrmi: http://ontology.qworum.net/i/</text>
<text text-anchor="middle" x="724.47" y="-52.8" font-family="Times,serif" font-size="14.00">qrmv: http://ontology.qworum.net/v/</text>
<text text-anchor="middle" x="724.47" y="-37.8" font-family="Times,serif" font-size="14.00">rdf: http://www.w3.org/1999/02/22&#45;rdf&#45;syntax&#45;ns#</text>
<text text-anchor="middle" x="724.47" y="-22.8" font-family="Times,serif" font-size="14.00">rdfs: http://www.w3.org/2000/01/rdf&#45;schema#</text>
<text text-anchor="middle" x="724.47" y="-7.8" font-family="Times,serif" font-size="14.00">xsd: http://www.w3.org/2001/XMLSchema#</text>
<!-- R -->
<g id="node1" class="node">
<title>R</title>
<ellipse fill="none" stroke="blue" cx="65.64" cy="-394.14" rx="27" ry="18"/>
</g>
<!-- Rfoaf:Document -->
<g id="node2" class="node">
<title>Rfoaf:Document</title>
<ellipse fill="none" stroke="blue" cx="652.12" cy="-568.14" rx="78.79" ry="18"/>
<text text-anchor="middle" x="652.12" y="-564.44" font-family="Times,serif" font-size="14.00">foaf:Document</text>
</g>
<!-- R&#45;&gt;Rfoaf:Document -->
<g id="edge1" class="edge">
<title>R&#45;&gt;Rfoaf:Document</title>
<path fill="none" stroke="black" d="M72.01,-412C81.92,-441.52 106.12,-499.82 149.29,-526.14 283.84,-608.16 477.7,-595.5 580.64,-580.83"/>
<polygon fill="black" stroke="black" points="581.24,-584.28 590.62,-579.36 580.22,-577.35 581.24,-584.28"/>
<text text-anchor="middle" x="265.29" y="-593.94" font-family="Times,serif" font-size="14.00">rdf:type</text>
</g>
<!-- LQworum API description ontology.|Language: en -->
<g id="node3" class="node">
<title>LQworum API description ontology.|Language: en</title>
<polygon fill="none" stroke="black" points="522.12,-485.14 522.12,-531.14 782.12,-531.14 782.12,-485.14 522.12,-485.14"/>
<text text-anchor="middle" x="652.12" y="-515.94" font-family="Times,serif" font-size="14.00">Qworum API description ontology.</text>
<polyline fill="none" stroke="black" points="522.12,-508.14 782.12,-508.14 "/>
<text text-anchor="middle" x="652.12" y="-492.94" font-family="Times,serif" font-size="14.00">Language: en</text>
</g>
<!-- R&#45;&gt;LQworum API description ontology.|Language: en -->
<g id="edge2" class="edge">
<title>R&#45;&gt;LQworum API description ontology.|Language: en</title>
<path fill="none" stroke="black" d="M81.23,-409.06C96.64,-423.79 122.4,-445.6 149.29,-456.14 265.7,-501.75 408.32,-512.66 511.72,-513.39"/>
<polygon fill="black" stroke="black" points="511.91,-516.89 521.92,-513.43 511.93,-509.89 511.91,-516.89"/>
<text text-anchor="middle" x="265.29" y="-510.94" font-family="Times,serif" font-size="14.00">dcterms:description</text>
</g>
<!-- Rhttps://qworum.net/data/DoğaArmangil.ttl#id -->
<g id="node4" class="node">
<title>Rhttps://qworum.net/data/DoğaArmangil.ttl#id</title>
<ellipse fill="none" stroke="blue" cx="652.12" cy="-448.14" rx="222.86" ry="18"/>
<text text-anchor="middle" x="652.12" y="-444.44" font-family="Times,serif" font-size="14.00">https://qworum.net/data/DoğaArmangil.ttl#id</text>
</g>
<!-- R&#45;&gt;Rhttps://qworum.net/data/DoğaArmangil.ttl#id -->
<g id="edge3" class="edge">
<title>R&#45;&gt;Rhttps://qworum.net/data/DoğaArmangil.ttl#id</title>
<path fill="none" stroke="black" d="M91.04,-400.8C107.4,-405.01 129.48,-410.19 149.29,-413.14 242.97,-427.08 347.33,-435.5 436.52,-440.56"/>
<polygon fill="black" stroke="black" points="436.58,-444.07 446.76,-441.13 436.97,-437.08 436.58,-444.07"/>
<text text-anchor="middle" x="265.29" y="-440.94" font-family="Times,serif" font-size="14.00">foaf:maker</text>
</g>
<!-- Rhttps://creativecommons.org/publicdomain/zero/1.0/ -->
<g id="node5" class="node">
<title>Rhttps://creativecommons.org/publicdomain/zero/1.0/</title>
<ellipse fill="none" stroke="blue" cx="652.12" cy="-394.14" rx="252.66" ry="18"/>
<text text-anchor="middle" x="652.12" y="-390.44" font-family="Times,serif" font-size="14.00">https://creativecommons.org/publicdomain/zero/1.0/</text>
</g>
<!-- R&#45;&gt;Rhttps://creativecommons.org/publicdomain/zero/1.0/ -->
<g id="edge4" class="edge">
<title>R&#45;&gt;Rhttps://creativecommons.org/publicdomain/zero/1.0/</title>
<path fill="none" stroke="black" d="M92.89,-394.14C145.88,-394.14 270.67,-394.14 388.85,-394.14"/>
<polygon fill="black" stroke="black" points="389.16,-397.64 399.16,-394.14 389.16,-390.64 389.16,-397.64"/>
<text text-anchor="middle" x="265.29" y="-397.94" font-family="Times,serif" font-size="14.00">cc:license</text>
</g>
<!-- Rowl:Ontology -->
<g id="node6" class="node">
<title>Rowl:Ontology</title>
<ellipse fill="none" stroke="blue" cx="652.12" cy="-340.14" rx="71.49" ry="18"/>
<text text-anchor="middle" x="652.12" y="-336.44" font-family="Times,serif" font-size="14.00">owl:Ontology</text>
</g>
<!-- R&#45;&gt;Rowl:Ontology -->
<g id="edge5" class="edge">
<title>R&#45;&gt;Rowl:Ontology</title>
<path fill="none" stroke="black" d="M91.04,-387.47C107.4,-383.26 129.48,-378.09 149.29,-375.14 296.75,-353.18 470.69,-344.94 570.23,-341.89"/>
<polygon fill="black" stroke="black" points="570.62,-345.38 580.51,-341.59 570.41,-338.38 570.62,-345.38"/>
<text text-anchor="middle" x="265.29" y="-378.94" font-family="Times,serif" font-size="14.00">rdf:type</text>
</g>
<!-- Lqrmc -->
<g id="node7" class="node">
<title>Lqrmc</title>
<polygon fill="none" stroke="black" points="625.12,-267.14 625.12,-303.14 679.12,-303.14 679.12,-267.14 625.12,-267.14"/>
<text text-anchor="middle" x="652.12" y="-281.44" font-family="Times,serif" font-size="14.00">qrmc</text>
</g>
<!-- R&#45;&gt;Lqrmc -->
<g id="edge6" class="edge">
<title>R&#45;&gt;Lqrmc</title>
<path fill="none" stroke="black" d="M81.26,-379.41C96.7,-364.88 122.47,-343.4 149.29,-333.14 313.89,-270.12 530.07,-276.55 614.82,-282.15"/>
<polygon fill="black" stroke="black" points="614.74,-285.66 624.96,-282.86 615.23,-278.67 614.74,-285.66"/>
<text text-anchor="middle" x="265.29" y="-336.94" font-family="Times,serif" font-size="14.00">vann:preferredNamespacePrefix</text>
</g>
<!-- Lhttp://ontology.qworum.net/c/ -->
<g id="node8" class="node">
<title>Lhttp://ontology.qworum.net/c/</title>
<polygon fill="none" stroke="black" points="538.62,-212.14 538.62,-248.14 765.62,-248.14 765.62,-212.14 538.62,-212.14"/>
<text text-anchor="middle" x="652.12" y="-226.44" font-family="Times,serif" font-size="14.00">http://ontology.qworum.net/c/</text>
</g>
<!-- R&#45;&gt;Lhttp://ontology.qworum.net/c/ -->
<g id="edge7" class="edge">
<title>R&#45;&gt;Lhttp://ontology.qworum.net/c/</title>
<path fill="none" stroke="black" d="M72.31,-376.28C82.51,-347.41 106.95,-291.2 149.29,-266.14 267.61,-196.09 430.17,-198.57 537.82,-210.88"/>
<polygon fill="black" stroke="black" points="537.72,-214.39 548.07,-212.1 538.55,-207.44 537.72,-214.39"/>
<text text-anchor="middle" x="265.29" y="-269.94" font-family="Times,serif" font-size="14.00">vann:preferredNamespaceUri</text>
</g>
<!-- RClass -->
<g id="node9" class="node">
<title>RClass</title>
<ellipse fill="none" stroke="blue" cx="652.12" cy="-1549.14" rx="36" ry="18"/>
<text text-anchor="middle" x="652.12" y="-1545.44" font-family="Times,serif" font-size="14.00">Class</text>
</g>
<!-- Rrdfs:Class -->
<g id="node10" class="node">
<title>Rrdfs:Class</title>
<ellipse fill="none" stroke="blue" cx="1251.94" cy="-1083.14" rx="57.39" ry="18"/>
<text text-anchor="middle" x="1251.94" y="-1079.44" font-family="Times,serif" font-size="14.00">rdfs:Class</text>
</g>
<!-- RClass&#45;&gt;Rrdfs:Class -->
<g id="edge8" class="edge">
<title>RClass&#45;&gt;Rrdfs:Class</title>
<path fill="none" stroke="black" d="M684.61,-1556.81C738.08,-1567.75 846.49,-1580.59 904.94,-1522.14 931.49,-1495.59 905.16,-1387.2 922.94,-1354.14 989.67,-1230.09 1138.98,-1140.48 1210.82,-1102.83"/>
<polygon fill="black" stroke="black" points="1212.74,-1105.78 1220.01,-1098.08 1209.52,-1099.56 1212.74,-1105.78"/>
<text text-anchor="middle" x="979.94" y="-1357.94" font-family="Times,serif" font-size="14.00">rdfs:subClassOf</text>
</g>
<!-- RClassPointer -->
<g id="node11" class="node">
<title>RClassPointer</title>
<ellipse fill="none" stroke="blue" cx="652.12" cy="-812.14" rx="69.59" ry="18"/>
<text text-anchor="middle" x="652.12" y="-808.44" font-family="Times,serif" font-size="14.00">ClassPointer</text>
</g>
<!-- RClassPointer&#45;&gt;Rrdfs:Class -->
<g id="edge9" class="edge">
<title>RClassPointer&#45;&gt;Rrdfs:Class</title>
<path fill="none" stroke="black" d="M721.52,-810.29C773.42,-811.05 845.7,-816.8 904.94,-839.14 1040.97,-890.42 1173.33,-1008.09 1226.5,-1058.97"/>
<polygon fill="black" stroke="black" points="1224.13,-1061.55 1233.76,-1065.97 1228.99,-1056.51 1224.13,-1061.55"/>
<text text-anchor="middle" x="979.94" y="-906.94" font-family="Times,serif" font-size="14.00">rdfs:subClassOf</text>
</g>
<!-- RMethod -->
<g id="node12" class="node">
<title>RMethod</title>
<ellipse fill="none" stroke="blue" cx="652.12" cy="-1083.14" rx="46.29" ry="18"/>
<text text-anchor="middle" x="652.12" y="-1079.44" font-family="Times,serif" font-size="14.00">Method</text>
</g>
<!-- RMethod&#45;&gt;Rrdfs:Class -->
<g id="edge10" class="edge">
<title>RMethod&#45;&gt;Rrdfs:Class</title>
<path fill="none" stroke="black" d="M698.54,-1083.14C803.23,-1083.14 1061.85,-1083.14 1184.44,-1083.14"/>
<polygon fill="black" stroke="black" points="1184.45,-1086.64 1194.45,-1083.14 1184.45,-1079.64 1184.45,-1086.64"/>
<text text-anchor="middle" x="979.94" y="-1086.94" font-family="Times,serif" font-size="14.00">rdfs:subClassOf</text>
</g>
<!-- Rimplements -->
<g id="node13" class="node">
<title>Rimplements</title>
<ellipse fill="none" stroke="blue" cx="65.64" cy="-1495.14" rx="65.79" ry="18"/>
<text text-anchor="middle" x="65.64" y="-1491.44" font-family="Times,serif" font-size="14.00">implements</text>
</g>
<!-- Rimplements&#45;&gt;RClass -->
<g id="edge12" class="edge">
<title>Rimplements&#45;&gt;RClass</title>
<path fill="none" stroke="black" d="M118.07,-1506.05C128.38,-1507.96 139.15,-1509.78 149.29,-1511.14 316.96,-1533.64 518.08,-1543.84 606.13,-1547.48"/>
<polygon fill="black" stroke="black" points="606.16,-1550.98 616.29,-1547.89 606.44,-1543.99 606.16,-1550.98"/>
<text text-anchor="middle" x="265.29" y="-1536.94" font-family="Times,serif" font-size="14.00">rdfs:domain</text>
</g>
<!-- Rrdf:Property -->
<g id="node14" class="node">
<title>Rrdf:Property</title>
<ellipse fill="none" stroke="blue" cx="652.12" cy="-1186.14" rx="68.49" ry="18"/>
<text text-anchor="middle" x="652.12" y="-1182.44" font-family="Times,serif" font-size="14.00">rdf:Property</text>
</g>
<!-- Rimplements&#45;&gt;Rrdf:Property -->
<g id="edge11" class="edge">
<title>Rimplements&#45;&gt;Rrdf:Property</title>
<path fill="none" stroke="black" d="M70.38,-1476.95C78.33,-1443.4 100.35,-1372.29 149.29,-1340.14 192.52,-1311.73 331.47,-1335.07 381.29,-1321.14 471.75,-1295.83 567.89,-1239.73 617.35,-1208.4"/>
<polygon fill="black" stroke="black" points="619.49,-1211.18 626.04,-1202.85 615.72,-1205.28 619.49,-1211.18"/>
<text text-anchor="middle" x="265.29" y="-1343.94" font-family="Times,serif" font-size="14.00">rdf:type</text>
</g>
<!-- Rqrmi:Interface -->
<g id="node15" class="node">
<title>Rqrmi:Interface</title>
<ellipse fill="none" stroke="blue" cx="652.12" cy="-1495.14" rx="77.19" ry="18"/>
<text text-anchor="middle" x="652.12" y="-1491.44" font-family="Times,serif" font-size="14.00">qrmi:Interface</text>
</g>
<!-- Rimplements&#45;&gt;Rqrmi:Interface -->
<g id="edge13" class="edge">
<title>Rimplements&#45;&gt;Rqrmi:Interface</title>
<path fill="none" stroke="black" d="M131.43,-1495.14C236.98,-1495.14 446.15,-1495.14 564.4,-1495.14"/>
<polygon fill="black" stroke="black" points="564.5,-1498.64 574.5,-1495.14 564.5,-1491.64 564.5,-1498.64"/>
<text text-anchor="middle" x="265.29" y="-1498.94" font-family="Times,serif" font-size="14.00">rdfs:range</text>
</g>
<!-- Rbase -->
<g id="node16" class="node">
<title>Rbase</title>
<ellipse fill="none" stroke="blue" cx="65.64" cy="-1590.14" rx="32.49" ry="18"/>
<text text-anchor="middle" x="65.64" y="-1586.44" font-family="Times,serif" font-size="14.00">base</text>
</g>
<!-- Rbase&#45;&gt;RClass -->
<g id="edge16" class="edge">
<title>Rbase&#45;&gt;RClass</title>
<path fill="none" stroke="black" d="M95.53,-1583.05C111.31,-1579.47 131.27,-1575.41 149.29,-1573.14 316.85,-1552.03 518.03,-1549.12 606.11,-1548.96"/>
<polygon fill="black" stroke="black" points="606.28,-1552.46 616.28,-1548.95 606.27,-1545.46 606.28,-1552.46"/>
<text text-anchor="middle" x="265.29" y="-1576.94" font-family="Times,serif" font-size="14.00">rdfs:domain</text>
</g>
<!-- Rbase&#45;&gt;Rrdf:Property -->
<g id="edge14" class="edge">
<title>Rbase&#45;&gt;Rrdf:Property</title>
<path fill="none" stroke="black" d="M84.26,-1575.16C98.5,-1562.29 118.26,-1542.61 131.29,-1522.14 143.07,-1503.61 132.31,-1490.05 149.29,-1476.14 230.29,-1409.78 306.34,-1508.26 381.29,-1435.14 410.17,-1406.95 376.43,-1379.39 399.29,-1346.14 448.76,-1274.16 542.31,-1227.59 600.41,-1204.18"/>
<polygon fill="black" stroke="black" points="601.76,-1207.41 609.77,-1200.48 599.19,-1200.9 601.76,-1207.41"/>
<text text-anchor="middle" x="265.29" y="-1479.94" font-family="Times,serif" font-size="14.00">rdf:type</text>
</g>
<!-- LThe base path of a Qworum class.|Language: en -->
<g id="node17" class="node">
<title>LThe base path of a Qworum class.|Language: en</title>
<polygon fill="none" stroke="black" points="523.62,-1586.14 523.62,-1632.14 780.62,-1632.14 780.62,-1586.14 523.62,-1586.14"/>
<text text-anchor="middle" x="652.12" y="-1616.94" font-family="Times,serif" font-size="14.00">The base path of a Qworum class.</text>
<polyline fill="none" stroke="black" points="523.62,-1609.14 780.62,-1609.14 "/>
<text text-anchor="middle" x="652.12" y="-1593.94" font-family="Times,serif" font-size="14.00">Language: en</text>
</g>
<!-- Rbase&#45;&gt;LThe base path of a Qworum class.|Language: en -->
<g id="edge15" class="edge">
<title>Rbase&#45;&gt;LThe base path of a Qworum class.|Language: en</title>
<path fill="none" stroke="black" d="M98.48,-1591.17C175.64,-1593.68 376.34,-1600.2 513.39,-1604.66"/>
<polygon fill="black" stroke="black" points="513.45,-1608.16 523.56,-1604.99 513.68,-1601.17 513.45,-1608.16"/>
<text text-anchor="middle" x="265.29" y="-1603.94" font-family="Times,serif" font-size="14.00">qrmv:comment</text>
</g>
<!-- RbasePath -->
<g id="node18" class="node">
<title>RbasePath</title>
<ellipse fill="none" stroke="blue" cx="652.12" cy="-1669.14" rx="53.09" ry="18"/>
<text text-anchor="middle" x="652.12" y="-1665.44" font-family="Times,serif" font-size="14.00">basePath</text>
</g>
<!-- Rbase&#45;&gt;RbasePath -->
<g id="edge17" class="edge">
<title>Rbase&#45;&gt;RbasePath</title>
<path fill="none" stroke="black" d="M92.24,-1600.9C108.33,-1607.21 129.69,-1614.79 149.29,-1619.14 304.95,-1653.68 493.1,-1664.38 588.74,-1667.68"/>
<polygon fill="black" stroke="black" points="588.71,-1671.18 598.82,-1668.01 588.94,-1664.18 588.71,-1671.18"/>
<text text-anchor="middle" x="265.29" y="-1656.94" font-family="Times,serif" font-size="14.00">rdfs:range</text>
</g>
<!-- Rqrmv:anyIRI -->
<g id="node30" class="node">
<title>Rqrmv:anyIRI</title>
<ellipse fill="none" stroke="blue" cx="1251.94" cy="-1541.14" rx="68.49" ry="18"/>
<text text-anchor="middle" x="1251.94" y="-1537.44" font-family="Times,serif" font-size="14.00">qrmv:anyIRI</text>
</g>
<!-- RbasePath&#45;&gt;Rqrmv:anyIRI -->
<g id="edge38" class="edge">
<title>RbasePath&#45;&gt;Rqrmv:anyIRI</title>
<path fill="none" stroke="black" d="M705.13,-1666.26C756.33,-1662.79 836.58,-1655.67 904.94,-1642.14 1012.09,-1620.93 1133.97,-1581.69 1200.68,-1558.87"/>
<polygon fill="black" stroke="black" points="1202.19,-1562.05 1210.51,-1555.49 1199.92,-1555.43 1202.19,-1562.05"/>
<text text-anchor="middle" x="979.94" y="-1641.94" font-family="Times,serif" font-size="14.00">rdfs:subClassOf</text>
</g>
<!-- L\n &#160;&#160;&#160;An IRI path that starts and ends with an &quot;/&quot;. \n &#160;&#160;&#160;The slashes are implicitly added if they are missing.\n &#160;|Language: en -->
<g id="node31" class="node">
<title>L\n &#160;&#160;&#160;An IRI path that starts and ends with an &quot;/&quot;. \n &#160;&#160;&#160;The slashes are implicitly added if they are missing.\n &#160;|Language: en</title>
<polygon fill="none" stroke="black" points="1054.94,-1630.64 1054.94,-1707.64 1448.94,-1707.64 1448.94,-1630.64 1054.94,-1630.64"/>
<text text-anchor="middle" x="1251.94" y="-1676.44" font-family="Times,serif" font-size="14.00"> An IRI path that starts and ends with an &quot;/&quot;. </text>
<text text-anchor="middle" x="1251.94" y="-1661.44" font-family="Times,serif" font-size="14.00"> The slashes are implicitly added if they are missing.</text>
<polyline fill="none" stroke="black" points="1054.94,-1653.64 1448.94,-1653.64 "/>
<text text-anchor="middle" x="1251.94" y="-1638.44" font-family="Times,serif" font-size="14.00">Language: en</text>
</g>
<!-- RbasePath&#45;&gt;L\n &#160;&#160;&#160;An IRI path that starts and ends with an &quot;/&quot;. \n &#160;&#160;&#160;The slashes are implicitly added if they are missing.\n &#160;|Language: en -->
<g id="edge39" class="edge">
<title>RbasePath&#45;&gt;L\n &#160;&#160;&#160;An IRI path that starts and ends with an &quot;/&quot;. \n &#160;&#160;&#160;The slashes are implicitly added if they are missing.\n &#160;|Language: en</title>
<path fill="none" stroke="black" d="M705.65,-1669.14C781.03,-1669.14 924.1,-1669.14 1044.78,-1669.14"/>
<polygon fill="black" stroke="black" points="1044.91,-1672.64 1054.91,-1669.14 1044.91,-1665.64 1044.91,-1672.64"/>
<text text-anchor="middle" x="979.94" y="-1672.94" font-family="Times,serif" font-size="14.00">qrmv:comment</text>
</g>
<!-- Rproperty -->
<g id="node19" class="node">
<title>Rproperty</title>
<ellipse fill="none" stroke="blue" cx="65.64" cy="-1153.14" rx="51.19" ry="18"/>
<text text-anchor="middle" x="65.64" y="-1149.44" font-family="Times,serif" font-size="14.00">property</text>
</g>
<!-- Rproperty&#45;&gt;RClassPointer -->
<g id="edge20" class="edge">
<title>Rproperty&#45;&gt;RClassPointer</title>
<path fill="none" stroke="black" d="M70.32,-1135.21C78.22,-1101.77 100.23,-1030.37 149.29,-998.14 192.52,-969.73 343.88,-1014.86 381.29,-979.14 426.66,-935.81 354.46,-883.03 399.29,-839.14 448.27,-791.18 530.98,-791.62 588.17,-799.29"/>
<polygon fill="black" stroke="black" points="587.79,-802.77 598.19,-800.75 588.79,-795.85 587.79,-802.77"/>
<text text-anchor="middle" x="265.29" y="-1001.94" font-family="Times,serif" font-size="14.00">rdfs:range</text>
</g>
<!-- Rproperty&#45;&gt;Rrdf:Property -->
<g id="edge18" class="edge">
<title>Rproperty&#45;&gt;Rrdf:Property</title>
<path fill="none" stroke="black" d="M116.84,-1151.52C178.98,-1149.93 288.05,-1148.48 381.29,-1154.14 449.96,-1158.3 527.97,-1168.11 582.38,-1175.78"/>
<polygon fill="black" stroke="black" points="582.21,-1179.29 592.6,-1177.23 583.19,-1172.36 582.21,-1179.29"/>
<text text-anchor="middle" x="265.29" y="-1157.94" font-family="Times,serif" font-size="14.00">rdf:type</text>
</g>
<!-- RInterface -->
<g id="node20" class="node">
<title>RInterface</title>
<ellipse fill="none" stroke="blue" cx="652.12" cy="-1427.14" rx="52.79" ry="18"/>
<text text-anchor="middle" x="652.12" y="-1423.44" font-family="Times,serif" font-size="14.00">Interface</text>
</g>
<!-- Rproperty&#45;&gt;RInterface -->
<g id="edge19" class="edge">
<title>Rproperty&#45;&gt;RInterface</title>
<path fill="none" stroke="black" d="M109.82,-1162.42C122.49,-1164.89 136.4,-1167.37 149.29,-1169.14 174.91,-1172.66 362.97,-1169.88 381.29,-1188.14 414.77,-1221.52 366.23,-1366.34 399.29,-1400.14 450.19,-1452.18 540.58,-1448.2 598.09,-1438.89"/>
<polygon fill="black" stroke="black" points="598.82,-1442.32 608.08,-1437.17 597.63,-1435.42 598.82,-1442.32"/>
<text text-anchor="middle" x="265.29" y="-1191.94" font-family="Times,serif" font-size="14.00">rdfs:domain</text>
</g>
<!-- Rmethod -->
<g id="node21" class="node">
<title>Rmethod</title>
<ellipse fill="none" stroke="blue" cx="65.64" cy="-1313.14" rx="46.29" ry="18"/>
<text text-anchor="middle" x="65.64" y="-1309.44" font-family="Times,serif" font-size="14.00">method</text>
</g>
<!-- Rmethod&#45;&gt;RMethod -->
<g id="edge23" class="edge">
<title>Rmethod&#45;&gt;RMethod</title>
<path fill="none" stroke="black" d="M105.04,-1303.51C114.69,-1299.5 124.29,-1293.91 131.29,-1286.14 149.92,-1265.45 127.65,-1243.65 149.29,-1226.14 189.49,-1193.59 340.01,-1238.31 381.29,-1207.14 399.47,-1193.4 382.66,-1174.71 399.29,-1159.14 453.26,-1108.59 539.71,-1091.58 595.95,-1085.91"/>
<polygon fill="black" stroke="black" points="596.45,-1089.38 606.09,-1084.97 595.81,-1082.41 596.45,-1089.38"/>
<text text-anchor="middle" x="265.29" y="-1229.94" font-family="Times,serif" font-size="14.00">rdfs:range</text>
</g>
<!-- Rmethod&#45;&gt;Rrdf:Property -->
<g id="edge21" class="edge">
<title>Rmethod&#45;&gt;Rrdf:Property</title>
<path fill="none" stroke="black" d="M111.07,-1309.4C185.2,-1302.96 330.93,-1289.38 381.29,-1278.14 462,-1260.11 552.31,-1226.42 605.3,-1205.19"/>
<polygon fill="black" stroke="black" points="606.78,-1208.37 614.75,-1201.38 604.16,-1201.88 606.78,-1208.37"/>
<text text-anchor="middle" x="265.29" y="-1308.94" font-family="Times,serif" font-size="14.00">rdf:type</text>
</g>
<!-- Rmethod&#45;&gt;RInterface -->
<g id="edge22" class="edge">
<title>Rmethod&#45;&gt;RInterface</title>
<path fill="none" stroke="black" d="M77.89,-1330.69C91.88,-1350.8 117.81,-1382.83 149.29,-1397.14 188.36,-1414.9 463.71,-1423.08 589.14,-1425.91"/>
<polygon fill="black" stroke="black" points="589.28,-1429.42 599.35,-1426.14 589.43,-1422.42 589.28,-1429.42"/>
<text text-anchor="middle" x="265.29" y="-1421.94" font-family="Times,serif" font-size="14.00">rdfs:domain</text>
</g>
<!-- Rpath -->
<g id="node22" class="node">
<title>Rpath</title>
<ellipse fill="none" stroke="blue" cx="65.64" cy="-1259.14" rx="31.7" ry="18"/>
<text text-anchor="middle" x="65.64" y="-1255.44" font-family="Times,serif" font-size="14.00">path</text>
</g>
<!-- Rpath&#45;&gt;RMethod -->
<g id="edge25" class="edge">
<title>Rpath&#45;&gt;RMethod</title>
<path fill="none" stroke="black" d="M82.01,-1243.69C96.36,-1228.57 117.57,-1204.34 131.29,-1180.14 142.94,-1159.59 130.62,-1144.6 149.29,-1130.14 183.98,-1103.25 472.58,-1089.64 595.75,-1085.01"/>
<polygon fill="black" stroke="black" points="596.23,-1088.49 606.09,-1084.62 595.97,-1081.5 596.23,-1088.49"/>
<text text-anchor="middle" x="265.29" y="-1133.94" font-family="Times,serif" font-size="14.00">rdfs:domain</text>
</g>
<!-- Rpath&#45;&gt;Rrdf:Property -->
<g id="edge24" class="edge">
<title>Rpath&#45;&gt;Rrdf:Property</title>
<path fill="none" stroke="black" d="M97.61,-1259.51C154.2,-1259.79 278,-1258.63 381.29,-1245.14 455.59,-1235.43 539.73,-1215.59 594,-1201.6"/>
<polygon fill="black" stroke="black" points="594.98,-1204.97 603.78,-1199.06 593.22,-1198.19 594.98,-1204.97"/>
<text text-anchor="middle" x="265.29" y="-1262.94" font-family="Times,serif" font-size="14.00">rdf:type</text>
</g>
<!-- RmethodPath -->
<g id="node23" class="node">
<title>RmethodPath</title>
<ellipse fill="none" stroke="blue" cx="652.12" cy="-1373.14" rx="66.89" ry="18"/>
<text text-anchor="middle" x="652.12" y="-1369.44" font-family="Times,serif" font-size="14.00">methodPath</text>
</g>
<!-- Rpath&#45;&gt;RmethodPath -->
<g id="edge26" class="edge">
<title>Rpath&#45;&gt;RmethodPath</title>
<path fill="none" stroke="black" d="M95.92,-1265.12C108.46,-1269.1 122.27,-1275.61 131.29,-1286.14 153.03,-1311.51 123.27,-1338.16 149.29,-1359.14 165.53,-1372.23 438.31,-1373.57 574.72,-1373.41"/>
<polygon fill="black" stroke="black" points="575.1,-1376.91 585.09,-1373.4 575.09,-1369.91 575.1,-1376.91"/>
<text text-anchor="middle" x="265.29" y="-1375.94" font-family="Times,serif" font-size="14.00">rdfs:range</text>
</g>
<!-- RmethodPath&#45;&gt;Rqrmv:anyIRI -->
<g id="edge40" class="edge">
<title>RmethodPath&#45;&gt;Rqrmv:anyIRI</title>
<path fill="none" stroke="black" d="M718.69,-1375.15C770.04,-1377.92 842.91,-1384.5 904.94,-1400.14 1020.11,-1429.16 1147.54,-1488.8 1210.77,-1520.41"/>
<polygon fill="black" stroke="black" points="1209.48,-1523.68 1219.99,-1525.05 1212.63,-1517.43 1209.48,-1523.68"/>
<text text-anchor="middle" x="979.94" y="-1443.94" font-family="Times,serif" font-size="14.00">rdfs:subClassOf</text>
</g>
<!-- LAn IRI path that does not start with an &quot;/&quot;.|Language: en -->
<g id="node32" class="node">
<title>LAn IRI path that does not start with an &quot;/&quot;.|Language: en</title>
<polygon fill="none" stroke="black" points="1091.94,-1350.14 1091.94,-1396.14 1411.94,-1396.14 1411.94,-1350.14 1091.94,-1350.14"/>
<text text-anchor="middle" x="1251.94" y="-1380.94" font-family="Times,serif" font-size="14.00">An IRI path that does not start with an &quot;/&quot;.</text>
<polyline fill="none" stroke="black" points="1091.94,-1373.14 1411.94,-1373.14 "/>
<text text-anchor="middle" x="1251.94" y="-1357.94" font-family="Times,serif" font-size="14.00">Language: en</text>
</g>
<!-- RmethodPath&#45;&gt;LAn IRI path that does not start with an &quot;/&quot;.|Language: en -->
<g id="edge41" class="edge">
<title>RmethodPath&#45;&gt;LAn IRI path that does not start with an &quot;/&quot;.|Language: en</title>
<path fill="none" stroke="black" d="M719.09,-1373.14C805.78,-1373.14 961.14,-1373.14 1081.65,-1373.14"/>
<polygon fill="black" stroke="black" points="1081.73,-1376.64 1091.73,-1373.14 1081.73,-1369.64 1081.73,-1376.64"/>
<text text-anchor="middle" x="979.94" y="-1376.94" font-family="Times,serif" font-size="14.00">qrmv:comment</text>
</g>
<!-- Rparameter -->
<g id="node24" class="node">
<title>Rparameter</title>
<ellipse fill="none" stroke="blue" cx="65.64" cy="-975.14" rx="59.59" ry="18"/>
<text text-anchor="middle" x="65.64" y="-971.44" font-family="Times,serif" font-size="14.00">parameter</text>
</g>
<!-- Rparameter&#45;&gt;RClassPointer -->
<g id="edge30" class="edge">
<title>Rparameter&#45;&gt;RClassPointer</title>
<path fill="none" stroke="black" d="M80.24,-957.48C93.84,-939.48 115.02,-910.53 131.29,-884.14 140.26,-869.58 134.98,-859.5 149.29,-850.14 166.72,-838.72 436.87,-823.22 573.39,-816.06"/>
<polygon fill="black" stroke="black" points="573.98,-819.53 583.78,-815.51 573.61,-812.54 573.98,-819.53"/>
<text text-anchor="middle" x="265.29" y="-853.94" font-family="Times,serif" font-size="14.00">rdfs:range</text>
</g>
<!-- Rparameter&#45;&gt;RMethod -->
<g id="edge29" class="edge">
<title>Rparameter&#45;&gt;RMethod</title>
<path fill="none" stroke="black" d="M92.4,-991.38C108.21,-1000.52 129.21,-1011.26 149.29,-1017.14 248.74,-1046.22 278.53,-1026.87 381.29,-1040.14 457.53,-1049.98 545.37,-1064.59 599.58,-1073.99"/>
<polygon fill="black" stroke="black" points="599.17,-1077.47 609.62,-1075.74 600.37,-1070.58 599.17,-1077.47"/>
<text text-anchor="middle" x="265.29" y="-1043.94" font-family="Times,serif" font-size="14.00">rdfs:domain</text>
</g>
<!-- Rparameter&#45;&gt;Rrdf:Property -->
<g id="edge27" class="edge">
<title>Rparameter&#45;&gt;Rrdf:Property</title>
<path fill="none" stroke="black" d="M78.94,-992.7C93.37,-1011.74 119.18,-1041.26 149.29,-1055.14 243.35,-1098.49 294.82,-1020.12 381.29,-1077.14 395.24,-1086.33 386.32,-1099.6 399.29,-1110.14 450.09,-1151.41 522.95,-1170.29 577.24,-1178.91"/>
<polygon fill="black" stroke="black" points="576.74,-1182.38 587.15,-1180.41 577.78,-1175.46 576.74,-1182.38"/>
<text text-anchor="middle" x="265.29" y="-1080.94" font-family="Times,serif" font-size="14.00">rdf:type</text>
</g>
<!-- L\n &#160;&#160;&#160;For each interface parameter defined in this class&#39;s interface,\n &#160;&#160;&#160;specify the actual Qworum class that implements the interface.\n &#160;|Language: en -->
<g id="node25" class="node">
<title>L\n &#160;&#160;&#160;For each interface parameter defined in this class&#39;s interface,\n &#160;&#160;&#160;specify the actual Qworum class that implements the interface.\n &#160;|Language: en</title>
<polygon fill="none" stroke="black" points="414.62,-848.64 414.62,-925.64 889.62,-925.64 889.62,-848.64 414.62,-848.64"/>
<text text-anchor="middle" x="652.12" y="-894.44" font-family="Times,serif" font-size="14.00"> For each interface parameter defined in this class&#39;s interface,</text>
<text text-anchor="middle" x="652.12" y="-879.44" font-family="Times,serif" font-size="14.00"> specify the actual Qworum class that implements the interface.</text>
<polyline fill="none" stroke="black" points="414.62,-871.64 889.62,-871.64 "/>
<text text-anchor="middle" x="652.12" y="-856.44" font-family="Times,serif" font-size="14.00">Language: en</text>
</g>
<!-- Rparameter&#45;&gt;L\n &#160;&#160;&#160;For each interface parameter defined in this class&#39;s interface,\n &#160;&#160;&#160;specify the actual Qworum class that implements the interface.\n &#160;|Language: en -->
<g id="edge28" class="edge">
<title>Rparameter&#45;&gt;L\n &#160;&#160;&#160;For each interface parameter defined in this class&#39;s interface,\n &#160;&#160;&#160;specify the actual Qworum class that implements the interface.\n &#160;|Language: en</title>
<path fill="none" stroke="black" d="M77.11,-957.39C90.69,-936.31 116.57,-902.22 149.29,-888.14 195.32,-868.32 301.32,-866.11 404.1,-869.69"/>
<polygon fill="black" stroke="black" points="404.23,-873.2 414.36,-870.06 404.49,-866.2 404.23,-873.2"/>
<text text-anchor="middle" x="265.29" y="-891.94" font-family="Times,serif" font-size="14.00">qrmv:comment</text>
</g>
<!-- Rlocal -->
<g id="node26" class="node">
<title>Rlocal</title>
<ellipse fill="none" stroke="blue" cx="65.64" cy="-857.14" rx="32.49" ry="18"/>
<text text-anchor="middle" x="65.64" y="-853.44" font-family="Times,serif" font-size="14.00">local</text>
</g>
<!-- Rlocal&#45;&gt;RClassPointer -->
<g id="edge34" class="edge">
<title>Rlocal&#45;&gt;RClassPointer</title>
<path fill="none" stroke="black" d="M77.31,-840.17C91.09,-820.03 117.18,-787.48 149.29,-774.14 226.32,-742.13 467.6,-779.01 585.27,-799.82"/>
<polygon fill="black" stroke="black" points="584.78,-803.29 595.24,-801.59 586.01,-796.39 584.78,-803.29"/>
<text text-anchor="middle" x="265.29" y="-777.94" font-family="Times,serif" font-size="14.00">rdfs:range</text>
</g>
<!-- Rlocal&#45;&gt;RMethod -->
<g id="edge33" class="edge">
<title>Rlocal&#45;&gt;RMethod</title>
<path fill="none" stroke="black" d="M86.3,-871.13C102.42,-881.83 126.25,-895.93 149.29,-903.14 248.17,-934.09 282.7,-894.24 381.29,-926.14 394,-930.25 547.16,-1021.14 616.91,-1062.71"/>
<polygon fill="black" stroke="black" points="615.4,-1065.89 625.78,-1068 618.98,-1059.87 615.4,-1065.89"/>
<text text-anchor="middle" x="265.29" y="-929.94" font-family="Times,serif" font-size="14.00">rdfs:domain</text>
</g>
<!-- Rlocal&#45;&gt;Rrdf:Property -->
<g id="edge31" class="edge">
<title>Rlocal&#45;&gt;Rrdf:Property</title>
<path fill="none" stroke="black" d="M77.74,-874.13C91.76,-894.01 117.91,-926.13 149.29,-941.14 196.02,-963.49 344.22,-927.94 381.29,-964.14 428.07,-1009.81 357.16,-1060.14 399.29,-1110.14 441.83,-1160.62 516.63,-1178.33 573.7,-1184.17"/>
<polygon fill="black" stroke="black" points="573.49,-1187.67 583.77,-1185.1 574.13,-1180.7 573.49,-1187.67"/>
<text text-anchor="middle" x="265.29" y="-967.94" font-family="Times,serif" font-size="14.00">rdf:type</text>
</g>
<!-- L\n &#160;&#160;&#160;For each local interface defined in this class&#39;s interface,\n &#160;&#160;&#160;specify the actual Qworum class that implements the interface.\n &#160;|Language: en -->
<g id="node27" class="node">
<title>L\n &#160;&#160;&#160;For each local interface defined in this class&#39;s interface,\n &#160;&#160;&#160;specify the actual Qworum class that implements the interface.\n &#160;|Language: en</title>
<polygon fill="none" stroke="black" points="414.62,-658.64 414.62,-735.64 889.62,-735.64 889.62,-658.64 414.62,-658.64"/>
<text text-anchor="middle" x="652.12" y="-704.44" font-family="Times,serif" font-size="14.00"> For each local interface defined in this class&#39;s interface,</text>
<text text-anchor="middle" x="652.12" y="-689.44" font-family="Times,serif" font-size="14.00"> specify the actual Qworum class that implements the interface.</text>
<polyline fill="none" stroke="black" points="414.62,-681.64 889.62,-681.64 "/>
<text text-anchor="middle" x="652.12" y="-666.44" font-family="Times,serif" font-size="14.00">Language: en</text>
</g>
<!-- Rlocal&#45;&gt;L\n &#160;&#160;&#160;For each local interface defined in this class&#39;s interface,\n &#160;&#160;&#160;specify the actual Qworum class that implements the interface.\n &#160;|Language: en -->
<g id="edge32" class="edge">
<title>Rlocal&#45;&gt;L\n &#160;&#160;&#160;For each local interface defined in this class&#39;s interface,\n &#160;&#160;&#160;specify the actual Qworum class that implements the interface.\n &#160;|Language: en</title>
<path fill="none" stroke="black" d="M79.64,-840.76C93.74,-822.41 116.24,-791.41 131.29,-762.14 141.89,-741.5 130.48,-726.72 149.29,-713.14 190.58,-683.32 298.74,-677.4 404.11,-679.76"/>
<polygon fill="black" stroke="black" points="404.22,-683.26 414.3,-680.01 404.39,-676.26 404.22,-683.26"/>
<text text-anchor="middle" x="265.29" y="-716.94" font-family="Times,serif" font-size="14.00">qrmv:comment</text>
</g>
<!-- Rname -->
<g id="node28" class="node">
<title>Rname</title>
<ellipse fill="none" stroke="blue" cx="65.64" cy="-735.14" rx="36.29" ry="18"/>
<text text-anchor="middle" x="65.64" y="-731.44" font-family="Times,serif" font-size="14.00">name</text>
</g>
<!-- Rname&#45;&gt;RClassPointer -->
<g id="edge36" class="edge">
<title>Rname&#45;&gt;RClassPointer</title>
<path fill="none" stroke="black" d="M102.25,-733.45C160.78,-731.26 280.89,-729.2 381.29,-743.14 458.16,-753.8 544.71,-778.22 598.58,-794.95"/>
<polygon fill="black" stroke="black" points="597.66,-798.33 608.25,-797.98 599.76,-791.65 597.66,-798.33"/>
<text text-anchor="middle" x="265.29" y="-746.94" font-family="Times,serif" font-size="14.00">rdfs:domain</text>
</g>
<!-- Rname&#45;&gt;Rrdf:Property -->
<g id="edge35" class="edge">
<title>Rname&#45;&gt;Rrdf:Property</title>
<path fill="none" stroke="black" d="M84.6,-750.68C100.47,-763.42 124.82,-780.69 149.29,-789.14 198.2,-806.02 345.18,-772.07 381.29,-809.14 428.04,-857.14 357.74,-1057.56 399.29,-1110.14 440.42,-1162.19 515.97,-1179.64 573.62,-1185"/>
<polygon fill="black" stroke="black" points="573.55,-1188.5 583.8,-1185.84 574.13,-1181.53 573.55,-1188.5"/>
<text text-anchor="middle" x="265.29" y="-812.94" font-family="Times,serif" font-size="14.00">rdf:type</text>
</g>
<!-- Rxsd:string -->
<g id="node29" class="node">
<title>Rxsd:string</title>
<ellipse fill="none" stroke="blue" cx="652.12" cy="-622.14" rx="57.69" ry="18"/>
<text text-anchor="middle" x="652.12" y="-618.44" font-family="Times,serif" font-size="14.00">xsd:string</text>
</g>
<!-- Rname&#45;&gt;Rxsd:string -->
<g id="edge37" class="edge">
<title>Rname&#45;&gt;Rxsd:string</title>
<path fill="none" stroke="black" d="M79.42,-718.23C94.08,-700.27 119.92,-672.77 149.29,-660.14 296.38,-596.86 490.05,-604.71 588.23,-614.27"/>
<polygon fill="black" stroke="black" points="587.98,-617.76 598.28,-615.29 588.69,-610.8 587.98,-617.76"/>
<text text-anchor="middle" x="265.29" y="-663.94" font-family="Times,serif" font-size="14.00">rdfs:range</text>
</g>
<!-- B_:genid1 -->
<g id="node33" class="node">
<title>B_:genid1</title>
<ellipse fill="none" stroke="green" cx="65.64" cy="-1723.14" rx="18" ry="18"/>
</g>
<!-- B_:genid2 -->
<g id="node34" class="node">
<title>B_:genid2</title>
<ellipse fill="none" stroke="green" cx="652.12" cy="-1723.14" rx="18" ry="18"/>
</g>
<!-- B_:genid1&#45;&gt;B_:genid2 -->
<g id="edge42" class="edge">
<title>B_:genid1&#45;&gt;B_:genid2</title>
<path fill="none" stroke="black" d="M83.82,-1723.14C166.32,-1723.14 522.13,-1723.14 623.86,-1723.14"/>
<polygon fill="black" stroke="black" points="623.94,-1726.64 633.94,-1723.14 623.94,-1719.64 623.94,-1726.64"/>
<text text-anchor="middle" x="265.29" y="-1726.94" font-family="Times,serif" font-size="14.00">qrmv:end</text>
</g>
</g>
</svg>

