<?xml version="1.0" encoding="UTF-8" standalone="no"?>
<!DOCTYPE svg PUBLIC "-//W3C//DTD SVG 1.1//EN"
 "http://www.w3.org/Graphics/SVG/1.1/DTD/svg11.dtd">
<!-- Generated by graphviz version 2.43.0 (0)
 -->
<!-- Title: %3 Pages: 1 -->
<svg width="1154pt" height="1381pt"
 viewBox="0.00 0.00 1153.89 1381.02" xmlns="http://www.w3.org/2000/svg" xmlns:xlink="http://www.w3.org/1999/xlink">
<g id="graph0" class="graph" transform="scale(1 1) rotate(0) translate(4 1377.02)">
<title>%3</title>
<polygon fill="white" stroke="transparent" points="-4,4 -4,-1377.02 1149.89,-1377.02 1149.89,4 -4,4"/>
<text text-anchor="middle" x="572.95" y="-157.8" font-family="Times,serif" font-size="14.00">Namespaces:</text>
<text text-anchor="middle" x="572.95" y="-142.8" font-family="Times,serif" font-size="14.00">foaf: http://xmlns.com/foaf/0.1/</text>
<text text-anchor="middle" x="572.95" y="-127.8" font-family="Times,serif" font-size="14.00">dcterms: http://purl.org/dc/terms/</text>
<text text-anchor="middle" x="572.95" y="-112.8" font-family="Times,serif" font-size="14.00">cc: http://creativecommons.org/ns#</text>
<text text-anchor="middle" x="572.95" y="-97.8" font-family="Times,serif" font-size="14.00">vann: http://purl.org/vocab/vann/</text>
<text text-anchor="middle" x="572.95" y="-82.8" font-family="Times,serif" font-size="14.00">owl: http://www.w3.org/2002/07/owl#</text>
<text text-anchor="middle" x="572.95" y="-67.8" font-family="Times,serif" font-size="14.00">http://ontology.qworum.net/v/</text>
<text text-anchor="middle" x="572.95" y="-52.8" font-family="Times,serif" font-size="14.00">rdf: http://www.w3.org/1999/02/22&#45;rdf&#45;syntax&#45;ns#</text>
<text text-anchor="middle" x="572.95" y="-37.8" font-family="Times,serif" font-size="14.00">rdfs: http://www.w3.org/2000/01/rdf&#45;schema#</text>
<text text-anchor="middle" x="572.95" y="-22.8" font-family="Times,serif" font-size="14.00">xsd: http://www.w3.org/2001/XMLSchema#</text>
<text text-anchor="middle" x="572.95" y="-7.8" font-family="Times,serif" font-size="14.00">skos: http://www.w3.org/2004/02/skos/core#</text>
<!-- R -->
<g id="node1" class="node">
<title>R</title>
<ellipse fill="none" stroke="blue" cx="53.95" cy="-400.02" rx="27" ry="18"/>
</g>
<!-- Rfoaf:Document -->
<g id="node2" class="node">
<title>Rfoaf:Document</title>
<ellipse fill="none" stroke="blue" cx="760.89" cy="-574.02" rx="78.79" ry="18"/>
<text text-anchor="middle" x="760.89" y="-570.32" font-family="Times,serif" font-size="14.00">foaf:Document</text>
</g>
<!-- R&#45;&gt;Rfoaf:Document -->
<g id="edge1" class="edge">
<title>R&#45;&gt;Rfoaf:Document</title>
<path fill="none" stroke="black" d="M58.31,-418.22C65.07,-448.94 83.43,-510.43 125.89,-538.02 214.11,-595.36 523.2,-587.21 674.78,-579.35"/>
<polygon fill="black" stroke="black" points="675.17,-582.84 684.97,-578.81 674.8,-575.85 675.17,-582.84"/>
<text text-anchor="middle" x="241.89" y="-585.82" font-family="Times,serif" font-size="14.00">rdf:type</text>
</g>
<!-- LRDF document metadata ontology.|Language: en -->
<g id="node3" class="node">
<title>LRDF document metadata ontology.|Language: en</title>
<polygon fill="none" stroke="black" points="629.39,-491.02 629.39,-537.02 892.39,-537.02 892.39,-491.02 629.39,-491.02"/>
<text text-anchor="middle" x="760.89" y="-521.82" font-family="Times,serif" font-size="14.00">RDF document metadata ontology.</text>
<polyline fill="none" stroke="black" points="629.39,-514.02 892.39,-514.02 "/>
<text text-anchor="middle" x="760.89" y="-498.82" font-family="Times,serif" font-size="14.00">Language: en</text>
</g>
<!-- R&#45;&gt;LRDF document metadata ontology.|Language: en -->
<g id="edge2" class="edge">
<title>R&#45;&gt;LRDF document metadata ontology.|Language: en</title>
<path fill="none" stroke="black" d="M67.41,-415.88C80.27,-430.93 101.8,-452.75 125.89,-463.02 284.77,-530.8 486.2,-534.79 618.86,-527.64"/>
<polygon fill="black" stroke="black" points="619.3,-531.12 629.09,-527.06 618.91,-524.13 619.3,-531.12"/>
<text text-anchor="middle" x="241.89" y="-522.82" font-family="Times,serif" font-size="14.00">dcterms:description</text>
</g>
<!-- Rhttps://qworum.net/data/DoğaArmangil.ttl#id -->
<g id="node4" class="node">
<title>Rhttps://qworum.net/data/DoğaArmangil.ttl#id</title>
<ellipse fill="none" stroke="blue" cx="760.89" cy="-454.02" rx="222.86" ry="18"/>
<text text-anchor="middle" x="760.89" y="-450.32" font-family="Times,serif" font-size="14.00">https://qworum.net/data/DoğaArmangil.ttl#id</text>
</g>
<!-- R&#45;&gt;Rhttps://qworum.net/data/DoğaArmangil.ttl#id -->
<g id="edge3" class="edge">
<title>R&#45;&gt;Rhttps://qworum.net/data/DoğaArmangil.ttl#id</title>
<path fill="none" stroke="black" d="M78.65,-407.69C92.31,-411.77 109.9,-416.47 125.89,-419.02 258.11,-440.15 407.58,-449.1 528.17,-452.69"/>
<polygon fill="black" stroke="black" points="528.18,-456.19 538.27,-452.98 528.38,-449.19 528.18,-456.19"/>
<text text-anchor="middle" x="241.89" y="-447.82" font-family="Times,serif" font-size="14.00">foaf:maker</text>
</g>
<!-- Rhttps://creativecommons.org/publicdomain/zero/1.0/ -->
<g id="node5" class="node">
<title>Rhttps://creativecommons.org/publicdomain/zero/1.0/</title>
<ellipse fill="none" stroke="blue" cx="760.89" cy="-400.02" rx="252.66" ry="18"/>
<text text-anchor="middle" x="760.89" y="-396.32" font-family="Times,serif" font-size="14.00">https://creativecommons.org/publicdomain/zero/1.0/</text>
</g>
<!-- R&#45;&gt;Rhttps://creativecommons.org/publicdomain/zero/1.0/ -->
<g id="edge4" class="edge">
<title>R&#45;&gt;Rhttps://creativecommons.org/publicdomain/zero/1.0/</title>
<path fill="none" stroke="black" d="M81.29,-400.02C149.36,-400.02 336.96,-400.02 497.7,-400.02"/>
<polygon fill="black" stroke="black" points="497.76,-403.52 507.76,-400.02 497.76,-396.52 497.76,-403.52"/>
<text text-anchor="middle" x="241.89" y="-403.82" font-family="Times,serif" font-size="14.00">cc:license</text>
</g>
<!-- Rowl:Ontology -->
<g id="node6" class="node">
<title>Rowl:Ontology</title>
<ellipse fill="none" stroke="blue" cx="760.89" cy="-346.02" rx="71.49" ry="18"/>
<text text-anchor="middle" x="760.89" y="-342.32" font-family="Times,serif" font-size="14.00">owl:Ontology</text>
</g>
<!-- R&#45;&gt;Rowl:Ontology -->
<g id="edge5" class="edge">
<title>R&#45;&gt;Rowl:Ontology</title>
<path fill="none" stroke="black" d="M78.65,-392.36C92.31,-388.27 109.9,-383.58 125.89,-381.02 322.63,-349.6 557.57,-345.1 678.72,-345.17"/>
<polygon fill="black" stroke="black" points="679.01,-348.67 689.02,-345.19 679.03,-341.67 679.01,-348.67"/>
<text text-anchor="middle" x="241.89" y="-384.82" font-family="Times,serif" font-size="14.00">rdf:type</text>
</g>
<!-- Lqrmv -->
<g id="node7" class="node">
<title>Lqrmv</title>
<polygon fill="none" stroke="black" points="733.89,-273.02 733.89,-309.02 787.89,-309.02 787.89,-273.02 733.89,-273.02"/>
<text text-anchor="middle" x="760.89" y="-287.32" font-family="Times,serif" font-size="14.00">qrmv</text>
</g>
<!-- R&#45;&gt;Lqrmv -->
<g id="edge6" class="edge">
<title>R&#45;&gt;Lqrmv</title>
<path fill="none" stroke="black" d="M67.45,-384.4C80.35,-369.56 101.91,-348.08 125.89,-338.02 337.53,-249.28 623.61,-273.69 723.6,-285.99"/>
<polygon fill="black" stroke="black" points="723.42,-289.49 733.78,-287.28 724.3,-282.55 723.42,-289.49"/>
<text text-anchor="middle" x="241.89" y="-341.82" font-family="Times,serif" font-size="14.00">vann:preferredNamespacePrefix</text>
</g>
<!-- Lhttp://ontology.qworum.net/v/ -->
<g id="node8" class="node">
<title>Lhttp://ontology.qworum.net/v/</title>
<polygon fill="none" stroke="black" points="647.39,-218.02 647.39,-254.02 874.39,-254.02 874.39,-218.02 647.39,-218.02"/>
<text text-anchor="middle" x="760.89" y="-232.32" font-family="Times,serif" font-size="14.00">http://ontology.qworum.net/v/</text>
</g>
<!-- R&#45;&gt;Lhttp://ontology.qworum.net/v/ -->
<g id="edge7" class="edge">
<title>R&#45;&gt;Lhttp://ontology.qworum.net/v/</title>
<path fill="none" stroke="black" d="M58.41,-382.16C65.31,-352.02 83.89,-291.73 125.89,-265.02 297.16,-156.13 550.21,-188.93 678.67,-215.89"/>
<polygon fill="black" stroke="black" points="677.94,-219.31 688.45,-217.98 679.41,-212.47 677.94,-219.31"/>
<text text-anchor="middle" x="241.89" y="-268.82" font-family="Times,serif" font-size="14.00">vann:preferredNamespaceUri</text>
</g>
<!-- Rend -->
<g id="node9" class="node">
<title>Rend</title>
<ellipse fill="none" stroke="blue" cx="53.95" cy="-902.02" rx="27.9" ry="18"/>
<text text-anchor="middle" x="53.95" y="-898.32" font-family="Times,serif" font-size="14.00">end</text>
</g>
<!-- Rrdf:Property -->
<g id="node10" class="node">
<title>Rrdf:Property</title>
<ellipse fill="none" stroke="blue" cx="760.89" cy="-832.02" rx="68.49" ry="18"/>
<text text-anchor="middle" x="760.89" y="-828.32" font-family="Times,serif" font-size="14.00">rdf:Property</text>
</g>
<!-- Rend&#45;&gt;Rrdf:Property -->
<g id="edge8" class="edge">
<title>Rend&#45;&gt;Rrdf:Property</title>
<path fill="none" stroke="black" d="M74.24,-889.45C88.02,-881.18 107.34,-870.99 125.89,-866.02 228.64,-838.52 536.79,-833.16 682.25,-832.19"/>
<polygon fill="black" stroke="black" points="682.46,-835.69 692.44,-832.13 682.42,-828.69 682.46,-835.69"/>
<text text-anchor="middle" x="241.89" y="-869.82" font-family="Times,serif" font-size="14.00">rdf:type</text>
</g>
<!-- L\n &#160;&#160;&#160;Indicates the end of the RDF document. \n &#160;&#160;&#160;Receiving this statement ensures that the reader has got the whole document.\n\n &#160;&#160;&#160;Use cases:\n &#160;&#160;&#160;➜ Streamed documents, where document length is not known from the start.\n &#160;&#160;&#160;➜ Using TriG/Turtle as a replacement for JSON&#45;LD. An incomplete JSON&#45;LD document is easy to detect,\n &#160;&#160;&#160;&#160;&#160;end with this property TriG/Turtle is now on par with JSON&#45;LD in terms of document integrity detection.\n &#160;|Language: en -->
<g id="node11" class="node">
<title>L\n &#160;&#160;&#160;Indicates the end of the RDF document. \n &#160;&#160;&#160;Receiving this statement ensures that the reader has got the whole document.\n\n &#160;&#160;&#160;Use cases:\n &#160;&#160;&#160;➜ Streamed documents, where document length is not known from the start.\n &#160;&#160;&#160;➜ Using TriG/Turtle as a replacement for JSON&#45;LD. An incomplete JSON&#45;LD document is easy to detect,\n &#160;&#160;&#160;&#160;&#160;end with this property TriG/Turtle is now on par with JSON&#45;LD in terms of document integrity detection.\n &#160;|Language: en</title>
<polygon fill="none" stroke="black" points="375.89,-868.52 375.89,-1021.52 1145.89,-1021.52 1145.89,-868.52 375.89,-868.52"/>
<text text-anchor="middle" x="760.89" y="-990.32" font-family="Times,serif" font-size="14.00"> Indicates the end of the RDF document. </text>
<text text-anchor="middle" x="760.89" y="-975.32" font-family="Times,serif" font-size="14.00"> Receiving this statement ensures that the reader has got the whole document.</text>
<text text-anchor="middle" x="760.89" y="-944.32" font-family="Times,serif" font-size="14.00"> Use cases:</text>
<text text-anchor="middle" x="760.89" y="-929.32" font-family="Times,serif" font-size="14.00"> ➜ Streamed documents, where document length is not known from the start.</text>
<text text-anchor="middle" x="760.89" y="-914.32" font-family="Times,serif" font-size="14.00"> ➜ Using TriG/Turtle as a replacement for JSON&#45;LD. An incomplete JSON&#45;LD document is easy to detect,</text>
<text text-anchor="middle" x="760.89" y="-899.32" font-family="Times,serif" font-size="14.00"> end with this property TriG/Turtle is now on par with JSON&#45;LD in terms of document integrity detection.</text>
<polyline fill="none" stroke="black" points="375.89,-891.52 1145.89,-891.52 "/>
<text text-anchor="middle" x="760.89" y="-876.32" font-family="Times,serif" font-size="14.00">Language: en</text>
</g>
<!-- Rend&#45;&gt;L\n &#160;&#160;&#160;Indicates the end of the RDF document. \n &#160;&#160;&#160;Receiving this statement ensures that the reader has got the whole document.\n\n &#160;&#160;&#160;Use cases:\n &#160;&#160;&#160;➜ Streamed documents, where document length is not known from the start.\n &#160;&#160;&#160;➜ Using TriG/Turtle as a replacement for JSON&#45;LD. An incomplete JSON&#45;LD document is easy to detect,\n &#160;&#160;&#160;&#160;&#160;end with this property TriG/Turtle is now on par with JSON&#45;LD in terms of document integrity detection.\n &#160;|Language: en -->
<g id="edge9" class="edge">
<title>Rend&#45;&gt;L\n &#160;&#160;&#160;Indicates the end of the RDF document. \n &#160;&#160;&#160;Receiving this statement ensures that the reader has got the whole document.\n\n &#160;&#160;&#160;Use cases:\n &#160;&#160;&#160;➜ Streamed documents, where document length is not known from the start.\n &#160;&#160;&#160;➜ Using TriG/Turtle as a replacement for JSON&#45;LD. An incomplete JSON&#45;LD document is easy to detect,\n &#160;&#160;&#160;&#160;&#160;end with this property TriG/Turtle is now on par with JSON&#45;LD in terms of document integrity detection.\n &#160;|Language: en</title>
<path fill="none" stroke="black" d="M78.93,-910.33C92.53,-914.64 109.96,-919.53 125.89,-922.02 202.98,-934.11 285.95,-941.27 365.66,-945.3"/>
<polygon fill="black" stroke="black" points="365.7,-948.81 375.86,-945.8 366.05,-941.82 365.7,-948.81"/>
<text text-anchor="middle" x="241.89" y="-948.82" font-family="Times,serif" font-size="14.00">rdfs:comment</text>
</g>
<!-- Rcomment -->
<g id="node12" class="node">
<title>Rcomment</title>
<ellipse fill="none" stroke="blue" cx="53.95" cy="-1058.02" rx="53.89" ry="18"/>
<text text-anchor="middle" x="53.95" y="-1054.32" font-family="Times,serif" font-size="14.00">comment</text>
</g>
<!-- Rcomment&#45;&gt;Rrdf:Property -->
<g id="edge10" class="edge">
<title>Rcomment&#45;&gt;Rrdf:Property</title>
<path fill="none" stroke="black" d="M62.03,-1039.96C77.5,-1000.93 113.86,-911.58 125.89,-903.02 168.1,-873.02 312.19,-905.39 357.89,-881.02 369.04,-875.08 364.67,-864.83 375.89,-859.02 476.49,-806.95 612.22,-812 692.45,-821.35"/>
<polygon fill="black" stroke="black" points="692.08,-824.84 702.43,-822.57 692.93,-817.89 692.08,-824.84"/>
<text text-anchor="middle" x="241.89" y="-906.82" font-family="Times,serif" font-size="14.00">rdf:type</text>
</g>
<!-- L\n &#160;&#160;&#160;Comment in Markdown format. The leading N whitespace characters are ignored for each line. \n &#160;&#160;&#160;N = min(nb of leading ws chars in each line that has non&#45;ws chars)\n &#160;|Language: en -->
<g id="node13" class="node">
<title>L\n &#160;&#160;&#160;Comment in Markdown format. The leading N whitespace characters are ignored for each line. \n &#160;&#160;&#160;N = min(nb of leading ws chars in each line that has non&#45;ws chars)\n &#160;|Language: en</title>
<polygon fill="none" stroke="black" points="408.89,-1094.52 408.89,-1171.52 1112.89,-1171.52 1112.89,-1094.52 408.89,-1094.52"/>
<text text-anchor="middle" x="760.89" y="-1140.32" font-family="Times,serif" font-size="14.00"> Comment in Markdown format. The leading N whitespace characters are ignored for each line. </text>
<text text-anchor="middle" x="760.89" y="-1125.32" font-family="Times,serif" font-size="14.00"> N = min(nb of leading ws chars in each line that has non&#45;ws chars)</text>
<polyline fill="none" stroke="black" points="408.89,-1117.52 1112.89,-1117.52 "/>
<text text-anchor="middle" x="760.89" y="-1102.32" font-family="Times,serif" font-size="14.00">Language: en</text>
</g>
<!-- Rcomment&#45;&gt;L\n &#160;&#160;&#160;Comment in Markdown format. The leading N whitespace characters are ignored for each line. \n &#160;&#160;&#160;N = min(nb of leading ws chars in each line that has non&#45;ws chars)\n &#160;|Language: en -->
<g id="edge11" class="edge">
<title>Rcomment&#45;&gt;L\n &#160;&#160;&#160;Comment in Markdown format. The leading N whitespace characters are ignored for each line. \n &#160;&#160;&#160;N = min(nb of leading ws chars in each line that has non&#45;ws chars)\n &#160;|Language: en</title>
<path fill="none" stroke="black" d="M94.82,-1070C104.88,-1072.67 115.72,-1075.23 125.89,-1077.02 213.73,-1092.54 309.21,-1103.84 398.78,-1112.04"/>
<polygon fill="black" stroke="black" points="398.55,-1115.54 408.83,-1112.95 399.19,-1108.57 398.55,-1115.54"/>
<text text-anchor="middle" x="241.89" y="-1111.82" font-family="Times,serif" font-size="14.00">rdfs:comment</text>
</g>
<!-- Rrdf:langString -->
<g id="node14" class="node">
<title>Rrdf:langString</title>
<ellipse fill="none" stroke="blue" cx="760.89" cy="-1058.02" rx="76.89" ry="18"/>
<text text-anchor="middle" x="760.89" y="-1054.32" font-family="Times,serif" font-size="14.00">rdf:langString</text>
</g>
<!-- Rcomment&#45;&gt;Rrdf:langString -->
<g id="edge12" class="edge">
<title>Rcomment&#45;&gt;Rrdf:langString</title>
<path fill="none" stroke="black" d="M107.93,-1058.02C228.87,-1058.02 526.15,-1058.02 673.8,-1058.02"/>
<polygon fill="black" stroke="black" points="674.17,-1061.52 684.17,-1058.02 674.17,-1054.52 674.17,-1061.52"/>
<text text-anchor="middle" x="241.89" y="-1061.82" font-family="Times,serif" font-size="14.00">rdfs:range</text>
</g>
<!-- RanyIRI -->
<g id="node15" class="node">
<title>RanyIRI</title>
<ellipse fill="none" stroke="blue" cx="53.95" cy="-1293.02" rx="40.89" ry="18"/>
<text text-anchor="middle" x="53.95" y="-1289.32" font-family="Times,serif" font-size="14.00">anyIRI</text>
</g>
<!-- Rxsd:anyURI -->
<g id="node16" class="node">
<title>Rxsd:anyURI</title>
<ellipse fill="none" stroke="blue" cx="760.89" cy="-1339.02" rx="64.19" ry="18"/>
<text text-anchor="middle" x="760.89" y="-1335.32" font-family="Times,serif" font-size="14.00">xsd:anyURI</text>
</g>
<!-- RanyIRI&#45;&gt;Rxsd:anyURI -->
<g id="edge13" class="edge">
<title>RanyIRI&#45;&gt;Rxsd:anyURI</title>
<path fill="none" stroke="black" d="M78.24,-1307.78C91.62,-1315.41 109.07,-1323.95 125.89,-1328.02 326.85,-1376.74 574.22,-1359.89 691.71,-1347.46"/>
<polygon fill="black" stroke="black" points="692.43,-1350.91 701.99,-1346.35 691.67,-1343.95 692.43,-1350.91"/>
<text text-anchor="middle" x="241.89" y="-1361.82" font-family="Times,serif" font-size="14.00">rdfs:subClassOf</text>
</g>
<!-- RanyIRI&#45;&gt;Rxsd:anyURI -->
<g id="edge16" class="edge">
<title>RanyIRI&#45;&gt;Rxsd:anyURI</title>
<path fill="none" stroke="black" d="M95.14,-1294.87C153.18,-1297.6 263.81,-1303.03 357.89,-1309.02 473.93,-1316.42 608.67,-1326.85 688.97,-1333.26"/>
<polygon fill="black" stroke="black" points="688.72,-1336.75 698.97,-1334.06 689.28,-1329.78 688.72,-1336.75"/>
<text text-anchor="middle" x="241.89" y="-1312.82" font-family="Times,serif" font-size="14.00">sameAs</text>
</g>
<!-- Rrdfs:Datatype -->
<g id="node17" class="node">
<title>Rrdfs:Datatype</title>
<ellipse fill="none" stroke="blue" cx="760.89" cy="-1274.02" rx="74.99" ry="18"/>
<text text-anchor="middle" x="760.89" y="-1270.32" font-family="Times,serif" font-size="14.00">rdfs:Datatype</text>
</g>
<!-- RanyIRI&#45;&gt;Rrdfs:Datatype -->
<g id="edge14" class="edge">
<title>RanyIRI&#45;&gt;Rrdfs:Datatype</title>
<path fill="none" stroke="black" d="M87.83,-1282.88C99.7,-1279.7 113.28,-1276.61 125.89,-1275.02 323.53,-1250.18 558.58,-1259.97 679.37,-1267.83"/>
<polygon fill="black" stroke="black" points="679.43,-1271.34 689.64,-1268.51 679.9,-1264.36 679.43,-1271.34"/>
<text text-anchor="middle" x="241.89" y="-1278.82" font-family="Times,serif" font-size="14.00">rdfs:subClassOf</text>
</g>
<!-- LNon&#45;dereferenceable IRI (does not point to an RDF node). Same as xsd:anyURI, but fixes the typo.|Language: en -->
<g id="node18" class="node">
<title>LNon&#45;dereferenceable IRI (does not point to an RDF node). Same as xsd:anyURI, but fixes the typo.|Language: en</title>
<polygon fill="none" stroke="black" points="401.39,-1191.02 401.39,-1237.02 1120.39,-1237.02 1120.39,-1191.02 401.39,-1191.02"/>
<text text-anchor="middle" x="760.89" y="-1221.82" font-family="Times,serif" font-size="14.00">Non&#45;dereferenceable IRI (does not point to an RDF node). Same as xsd:anyURI, but fixes the typo.</text>
<polyline fill="none" stroke="black" points="401.39,-1214.02 1120.39,-1214.02 "/>
<text text-anchor="middle" x="760.89" y="-1198.82" font-family="Times,serif" font-size="14.00">Language: en</text>
</g>
<!-- RanyIRI&#45;&gt;LNon&#45;dereferenceable IRI (does not point to an RDF node). Same as xsd:anyURI, but fixes the typo.|Language: en -->
<g id="edge15" class="edge">
<title>RanyIRI&#45;&gt;LNon&#45;dereferenceable IRI (does not point to an RDF node). Same as xsd:anyURI, but fixes the typo.|Language: en</title>
<path fill="none" stroke="black" d="M70.99,-1276.5C84.36,-1263.94 104.59,-1247.59 125.89,-1240.02 249.7,-1196.05 395.77,-1187.4 516.47,-1190.72"/>
<polygon fill="black" stroke="black" points="516.49,-1194.22 526.59,-1191.02 516.7,-1187.22 516.49,-1194.22"/>
<text text-anchor="middle" x="241.89" y="-1243.82" font-family="Times,serif" font-size="14.00">rdfs:comment</text>
</g>
<!-- RsameAs -->
<g id="node19" class="node">
<title>RsameAs</title>
<ellipse fill="none" stroke="blue" cx="53.95" cy="-719.02" rx="46.29" ry="18"/>
<text text-anchor="middle" x="53.95" y="-715.32" font-family="Times,serif" font-size="14.00">sameAs</text>
</g>
<!-- RsameAs&#45;&gt;Rrdf:Property -->
<g id="edge17" class="edge">
<title>RsameAs&#45;&gt;Rrdf:Property</title>
<path fill="none" stroke="black" d="M71.33,-735.95C84.74,-748.68 104.86,-765.34 125.89,-774.02 224.67,-814.79 535.92,-827.06 682.33,-830.63"/>
<polygon fill="black" stroke="black" points="682.5,-834.13 692.58,-830.87 682.67,-827.14 682.5,-834.13"/>
<text text-anchor="middle" x="241.89" y="-817.82" font-family="Times,serif" font-size="14.00">rdf:type</text>
</g>
<!-- L\n &#160;&#160;&#160;Indicates that the subject and object are two different representations\n &#160;&#160;&#160;of the same thing.\n &#160;|Language: en -->
<g id="node20" class="node">
<title>L\n &#160;&#160;&#160;Indicates that the subject and object are two different representations\n &#160;&#160;&#160;of the same thing.\n &#160;|Language: en</title>
<polygon fill="none" stroke="black" points="498.39,-718.52 498.39,-795.52 1023.39,-795.52 1023.39,-718.52 498.39,-718.52"/>
<text text-anchor="middle" x="760.89" y="-764.32" font-family="Times,serif" font-size="14.00"> Indicates that the subject and object are two different representations</text>
<text text-anchor="middle" x="760.89" y="-749.32" font-family="Times,serif" font-size="14.00"> of the same thing.</text>
<polyline fill="none" stroke="black" points="498.39,-741.52 1023.39,-741.52 "/>
<text text-anchor="middle" x="760.89" y="-726.32" font-family="Times,serif" font-size="14.00">Language: en</text>
</g>
<!-- RsameAs&#45;&gt;L\n &#160;&#160;&#160;Indicates that the subject and object are two different representations\n &#160;&#160;&#160;of the same thing.\n &#160;|Language: en -->
<g id="edge18" class="edge">
<title>RsameAs&#45;&gt;L\n &#160;&#160;&#160;Indicates that the subject and object are two different representations\n &#160;&#160;&#160;of the same thing.\n &#160;|Language: en</title>
<path fill="none" stroke="black" d="M92.63,-728.9C103.31,-731.32 115,-733.62 125.89,-735.02 244.12,-750.27 375.7,-756.56 488.21,-758.74"/>
<polygon fill="black" stroke="black" points="488.28,-762.24 498.35,-758.92 488.41,-755.24 488.28,-762.24"/>
<text text-anchor="middle" x="241.89" y="-758.82" font-family="Times,serif" font-size="14.00">rdfs:comment</text>
</g>
<!-- Rhttps://schema.org/sameAs -->
<g id="node21" class="node">
<title>Rhttps://schema.org/sameAs</title>
<ellipse fill="none" stroke="blue" cx="760.89" cy="-628.02" rx="135.68" ry="18"/>
<text text-anchor="middle" x="760.89" y="-624.32" font-family="Times,serif" font-size="14.00">https://schema.org/sameAs</text>
</g>
<!-- RsameAs&#45;&gt;Rhttps://schema.org/sameAs -->
<g id="edge19" class="edge">
<title>RsameAs&#45;&gt;Rhttps://schema.org/sameAs</title>
<path fill="none" stroke="black" d="M66.66,-701.49C79.1,-684.57 100.46,-659.96 125.89,-649.02 212.15,-611.95 464.75,-614.95 623.85,-621.08"/>
<polygon fill="black" stroke="black" points="624.06,-624.59 634.19,-621.49 624.34,-617.6 624.06,-624.59"/>
<text text-anchor="middle" x="241.89" y="-652.82" font-family="Times,serif" font-size="14.00">skos:broader</text>
</g>
<!-- Rrdfs:Resource -->
<g id="node22" class="node">
<title>Rrdfs:Resource</title>
<ellipse fill="none" stroke="blue" cx="760.89" cy="-682.02" rx="75.29" ry="18"/>
<text text-anchor="middle" x="760.89" y="-678.32" font-family="Times,serif" font-size="14.00">rdfs:Resource</text>
</g>
<!-- RsameAs&#45;&gt;Rrdfs:Resource -->
<g id="edge20" class="edge">
<title>RsameAs&#45;&gt;Rrdfs:Resource</title>
<path fill="none" stroke="black" d="M77.78,-703.51C91.16,-695.36 108.76,-686.22 125.89,-682.02 227.88,-657.03 530.01,-669.29 677.3,-677.16"/>
<polygon fill="black" stroke="black" points="677.46,-680.67 687.63,-677.72 677.84,-673.68 677.46,-680.67"/>
<text text-anchor="middle" x="241.89" y="-685.82" font-family="Times,serif" font-size="14.00">rdfs:domain</text>
</g>
<!-- RsameAs&#45;&gt;Rrdfs:Resource -->
<g id="edge21" class="edge">
<title>RsameAs&#45;&gt;Rrdfs:Resource</title>
<path fill="none" stroke="black" d="M99.85,-716.67C215.91,-710.58 527.24,-694.24 677.08,-686.37"/>
<polygon fill="black" stroke="black" points="677.35,-689.86 687.15,-685.84 676.98,-682.87 677.35,-689.86"/>
<text text-anchor="middle" x="241.89" y="-719.82" font-family="Times,serif" font-size="14.00">rdfs:range</text>
</g>
</g>
</svg>

