<?xml version="1.0" encoding="UTF-8" standalone="no"?>
<!DOCTYPE svg PUBLIC "-//W3C//DTD SVG 1.1//EN"
 "http://www.w3.org/Graphics/SVG/1.1/DTD/svg11.dtd">
<!-- Generated by graphviz version 2.43.0 (0)
 -->
<!-- Title: %3 Pages: 1 -->
<svg width="1154pt" height="1135pt"
 viewBox="0.00 0.00 1153.89 1135.02" xmlns="http://www.w3.org/2000/svg" xmlns:xlink="http://www.w3.org/1999/xlink">
<g id="graph0" class="graph" transform="scale(1 1) rotate(0) translate(4 1131.02)">
<title>%3</title>
<polygon fill="white" stroke="transparent" points="-4,4 -4,-1131.02 1149.89,-1131.02 1149.89,4 -4,4"/>
<text text-anchor="middle" x="572.95" y="-142.8" font-family="Times,serif" font-size="14.00">Namespaces:</text>
<text text-anchor="middle" x="572.95" y="-127.8" font-family="Times,serif" font-size="14.00">foaf: http://xmlns.com/foaf/0.1/</text>
<text text-anchor="middle" x="572.95" y="-112.8" font-family="Times,serif" font-size="14.00">dcterms: http://purl.org/dc/terms/</text>
<text text-anchor="middle" x="572.95" y="-97.8" font-family="Times,serif" font-size="14.00">cc: http://creativecommons.org/ns#</text>
<text text-anchor="middle" x="572.95" y="-82.8" font-family="Times,serif" font-size="14.00">vann: http://purl.org/vocab/vann/</text>
<text text-anchor="middle" x="572.95" y="-67.8" font-family="Times,serif" font-size="14.00">owl: http://www.w3.org/2002/07/owl#</text>
<text text-anchor="middle" x="572.95" y="-52.8" font-family="Times,serif" font-size="14.00">http://ontology.qworum.net/v/</text>
<text text-anchor="middle" x="572.95" y="-37.8" font-family="Times,serif" font-size="14.00">rdf: http://www.w3.org/1999/02/22&#45;rdf&#45;syntax&#45;ns#</text>
<text text-anchor="middle" x="572.95" y="-22.8" font-family="Times,serif" font-size="14.00">rdfs: http://www.w3.org/2000/01/rdf&#45;schema#</text>
<text text-anchor="middle" x="572.95" y="-7.8" font-family="Times,serif" font-size="14.00">xsd: http://www.w3.org/2001/XMLSchema#</text>
<!-- R -->
<g id="node1" class="node">
<title>R</title>
<ellipse fill="none" stroke="blue" cx="53.95" cy="-385.02" rx="27" ry="18"/>
</g>
<!-- Rfoaf:Document -->
<g id="node2" class="node">
<title>Rfoaf:Document</title>
<ellipse fill="none" stroke="blue" cx="760.89" cy="-559.02" rx="78.79" ry="18"/>
<text text-anchor="middle" x="760.89" y="-555.32" font-family="Times,serif" font-size="14.00">foaf:Document</text>
</g>
<!-- R&#45;&gt;Rfoaf:Document -->
<g id="edge1" class="edge">
<title>R&#45;&gt;Rfoaf:Document</title>
<path fill="none" stroke="black" d="M58.31,-403.22C65.07,-433.94 83.43,-495.43 125.89,-523.02 214.11,-580.36 523.2,-572.21 674.78,-564.35"/>
<polygon fill="black" stroke="black" points="675.17,-567.84 684.97,-563.81 674.8,-560.85 675.17,-567.84"/>
<text text-anchor="middle" x="241.89" y="-570.82" font-family="Times,serif" font-size="14.00">rdf:type</text>
</g>
<!-- LRDF document metadata ontology.|Language: en -->
<g id="node3" class="node">
<title>LRDF document metadata ontology.|Language: en</title>
<polygon fill="none" stroke="black" points="629.39,-476.02 629.39,-522.02 892.39,-522.02 892.39,-476.02 629.39,-476.02"/>
<text text-anchor="middle" x="760.89" y="-506.82" font-family="Times,serif" font-size="14.00">RDF document metadata ontology.</text>
<polyline fill="none" stroke="black" points="629.39,-499.02 892.39,-499.02 "/>
<text text-anchor="middle" x="760.89" y="-483.82" font-family="Times,serif" font-size="14.00">Language: en</text>
</g>
<!-- R&#45;&gt;LRDF document metadata ontology.|Language: en -->
<g id="edge2" class="edge">
<title>R&#45;&gt;LRDF document metadata ontology.|Language: en</title>
<path fill="none" stroke="black" d="M67.41,-400.88C80.27,-415.93 101.8,-437.75 125.89,-448.02 284.77,-515.8 486.2,-519.79 618.86,-512.64"/>
<polygon fill="black" stroke="black" points="619.3,-516.12 629.09,-512.06 618.91,-509.13 619.3,-516.12"/>
<text text-anchor="middle" x="241.89" y="-507.82" font-family="Times,serif" font-size="14.00">dcterms:description</text>
</g>
<!-- Rhttps://qworum.net/data/DoğaArmangil.ttl#id -->
<g id="node4" class="node">
<title>Rhttps://qworum.net/data/DoğaArmangil.ttl#id</title>
<ellipse fill="none" stroke="blue" cx="760.89" cy="-439.02" rx="222.86" ry="18"/>
<text text-anchor="middle" x="760.89" y="-435.32" font-family="Times,serif" font-size="14.00">https://qworum.net/data/DoğaArmangil.ttl#id</text>
</g>
<!-- R&#45;&gt;Rhttps://qworum.net/data/DoğaArmangil.ttl#id -->
<g id="edge3" class="edge">
<title>R&#45;&gt;Rhttps://qworum.net/data/DoğaArmangil.ttl#id</title>
<path fill="none" stroke="black" d="M78.65,-392.69C92.31,-396.77 109.9,-401.47 125.89,-404.02 258.11,-425.15 407.58,-434.1 528.17,-437.69"/>
<polygon fill="black" stroke="black" points="528.18,-441.19 538.27,-437.98 528.38,-434.19 528.18,-441.19"/>
<text text-anchor="middle" x="241.89" y="-432.82" font-family="Times,serif" font-size="14.00">foaf:maker</text>
</g>
<!-- Rhttps://creativecommons.org/publicdomain/zero/1.0/ -->
<g id="node5" class="node">
<title>Rhttps://creativecommons.org/publicdomain/zero/1.0/</title>
<ellipse fill="none" stroke="blue" cx="760.89" cy="-385.02" rx="252.66" ry="18"/>
<text text-anchor="middle" x="760.89" y="-381.32" font-family="Times,serif" font-size="14.00">https://creativecommons.org/publicdomain/zero/1.0/</text>
</g>
<!-- R&#45;&gt;Rhttps://creativecommons.org/publicdomain/zero/1.0/ -->
<g id="edge4" class="edge">
<title>R&#45;&gt;Rhttps://creativecommons.org/publicdomain/zero/1.0/</title>
<path fill="none" stroke="black" d="M81.29,-385.02C149.36,-385.02 336.96,-385.02 497.7,-385.02"/>
<polygon fill="black" stroke="black" points="497.76,-388.52 507.76,-385.02 497.76,-381.52 497.76,-388.52"/>
<text text-anchor="middle" x="241.89" y="-388.82" font-family="Times,serif" font-size="14.00">cc:license</text>
</g>
<!-- Rowl:Ontology -->
<g id="node6" class="node">
<title>Rowl:Ontology</title>
<ellipse fill="none" stroke="blue" cx="760.89" cy="-331.02" rx="71.49" ry="18"/>
<text text-anchor="middle" x="760.89" y="-327.32" font-family="Times,serif" font-size="14.00">owl:Ontology</text>
</g>
<!-- R&#45;&gt;Rowl:Ontology -->
<g id="edge5" class="edge">
<title>R&#45;&gt;Rowl:Ontology</title>
<path fill="none" stroke="black" d="M78.65,-377.36C92.31,-373.27 109.9,-368.58 125.89,-366.02 322.63,-334.6 557.57,-330.1 678.72,-330.17"/>
<polygon fill="black" stroke="black" points="679.01,-333.67 689.02,-330.19 679.03,-326.67 679.01,-333.67"/>
<text text-anchor="middle" x="241.89" y="-369.82" font-family="Times,serif" font-size="14.00">rdf:type</text>
</g>
<!-- Lqrmv -->
<g id="node7" class="node">
<title>Lqrmv</title>
<polygon fill="none" stroke="black" points="733.89,-258.02 733.89,-294.02 787.89,-294.02 787.89,-258.02 733.89,-258.02"/>
<text text-anchor="middle" x="760.89" y="-272.32" font-family="Times,serif" font-size="14.00">qrmv</text>
</g>
<!-- R&#45;&gt;Lqrmv -->
<g id="edge6" class="edge">
<title>R&#45;&gt;Lqrmv</title>
<path fill="none" stroke="black" d="M67.45,-369.4C80.35,-354.56 101.91,-333.08 125.89,-323.02 337.53,-234.28 623.61,-258.69 723.6,-270.99"/>
<polygon fill="black" stroke="black" points="723.42,-274.49 733.78,-272.28 724.3,-267.55 723.42,-274.49"/>
<text text-anchor="middle" x="241.89" y="-326.82" font-family="Times,serif" font-size="14.00">vann:preferredNamespacePrefix</text>
</g>
<!-- Lhttp://ontology.qworum.net/v/ -->
<g id="node8" class="node">
<title>Lhttp://ontology.qworum.net/v/</title>
<polygon fill="none" stroke="black" points="647.39,-203.02 647.39,-239.02 874.39,-239.02 874.39,-203.02 647.39,-203.02"/>
<text text-anchor="middle" x="760.89" y="-217.32" font-family="Times,serif" font-size="14.00">http://ontology.qworum.net/v/</text>
</g>
<!-- R&#45;&gt;Lhttp://ontology.qworum.net/v/ -->
<g id="edge7" class="edge">
<title>R&#45;&gt;Lhttp://ontology.qworum.net/v/</title>
<path fill="none" stroke="black" d="M58.41,-367.16C65.31,-337.02 83.89,-276.73 125.89,-250.02 297.16,-141.13 550.21,-173.93 678.67,-200.89"/>
<polygon fill="black" stroke="black" points="677.94,-204.31 688.45,-202.98 679.41,-197.47 677.94,-204.31"/>
<text text-anchor="middle" x="241.89" y="-253.82" font-family="Times,serif" font-size="14.00">vann:preferredNamespaceUri</text>
</g>
<!-- Rend -->
<g id="node9" class="node">
<title>Rend</title>
<ellipse fill="none" stroke="blue" cx="53.95" cy="-843.02" rx="27.9" ry="18"/>
<text text-anchor="middle" x="53.95" y="-839.32" font-family="Times,serif" font-size="14.00">end</text>
</g>
<!-- Rrdf:Property -->
<g id="node10" class="node">
<title>Rrdf:Property</title>
<ellipse fill="none" stroke="blue" cx="760.89" cy="-763.02" rx="68.49" ry="18"/>
<text text-anchor="middle" x="760.89" y="-759.32" font-family="Times,serif" font-size="14.00">rdf:Property</text>
</g>
<!-- Rend&#45;&gt;Rrdf:Property -->
<g id="edge8" class="edge">
<title>Rend&#45;&gt;Rrdf:Property</title>
<path fill="none" stroke="black" d="M80.49,-837.25C93.96,-834.3 110.78,-830.77 125.89,-828.02 236.47,-807.95 264.19,-802.42 375.89,-790.02 482.21,-778.23 605.7,-770.63 683.32,-766.59"/>
<polygon fill="black" stroke="black" points="683.68,-770.07 693.49,-766.06 683.32,-763.08 683.68,-770.07"/>
<text text-anchor="middle" x="241.89" y="-831.82" font-family="Times,serif" font-size="14.00">rdf:type</text>
</g>
<!-- L\n &#160;&#160;&#160;Indicates the end of the RDF document. \n &#160;&#160;&#160;Receiving this statement ensures that the reader has got the whole document.\n\n &#160;&#160;&#160;Use cases:\n &#160;&#160;&#160;➜ Streamed documents, where document length is not known from the start.\n &#160;&#160;&#160;➜ Using TriG/Turtle as a replacement for JSON&#45;LD. An incomplete JSON&#45;LD document is easy to detect,\n &#160;&#160;&#160;&#160;&#160;end with this property TriG/Turtle is now on par with JSON&#45;LD in terms of document integrity detection.\n &#160;|Language: en -->
<g id="node11" class="node">
<title>L\n &#160;&#160;&#160;Indicates the end of the RDF document. \n &#160;&#160;&#160;Receiving this statement ensures that the reader has got the whole document.\n\n &#160;&#160;&#160;Use cases:\n &#160;&#160;&#160;➜ Streamed documents, where document length is not known from the start.\n &#160;&#160;&#160;➜ Using TriG/Turtle as a replacement for JSON&#45;LD. An incomplete JSON&#45;LD document is easy to detect,\n &#160;&#160;&#160;&#160;&#160;end with this property TriG/Turtle is now on par with JSON&#45;LD in terms of document integrity detection.\n &#160;|Language: en</title>
<polygon fill="none" stroke="black" points="375.89,-799.52 375.89,-952.52 1145.89,-952.52 1145.89,-799.52 375.89,-799.52"/>
<text text-anchor="middle" x="760.89" y="-921.32" font-family="Times,serif" font-size="14.00"> Indicates the end of the RDF document. </text>
<text text-anchor="middle" x="760.89" y="-906.32" font-family="Times,serif" font-size="14.00"> Receiving this statement ensures that the reader has got the whole document.</text>
<text text-anchor="middle" x="760.89" y="-875.32" font-family="Times,serif" font-size="14.00"> Use cases:</text>
<text text-anchor="middle" x="760.89" y="-860.32" font-family="Times,serif" font-size="14.00"> ➜ Streamed documents, where document length is not known from the start.</text>
<text text-anchor="middle" x="760.89" y="-845.32" font-family="Times,serif" font-size="14.00"> ➜ Using TriG/Turtle as a replacement for JSON&#45;LD. An incomplete JSON&#45;LD document is easy to detect,</text>
<text text-anchor="middle" x="760.89" y="-830.32" font-family="Times,serif" font-size="14.00"> end with this property TriG/Turtle is now on par with JSON&#45;LD in terms of document integrity detection.</text>
<polyline fill="none" stroke="black" points="375.89,-822.52 1145.89,-822.52 "/>
<text text-anchor="middle" x="760.89" y="-807.32" font-family="Times,serif" font-size="14.00">Language: en</text>
</g>
<!-- Rend&#45;&gt;L\n &#160;&#160;&#160;Indicates the end of the RDF document. \n &#160;&#160;&#160;Receiving this statement ensures that the reader has got the whole document.\n\n &#160;&#160;&#160;Use cases:\n &#160;&#160;&#160;➜ Streamed documents, where document length is not known from the start.\n &#160;&#160;&#160;➜ Using TriG/Turtle as a replacement for JSON&#45;LD. An incomplete JSON&#45;LD document is easy to detect,\n &#160;&#160;&#160;&#160;&#160;end with this property TriG/Turtle is now on par with JSON&#45;LD in terms of document integrity detection.\n &#160;|Language: en -->
<g id="edge9" class="edge">
<title>Rend&#45;&gt;L\n &#160;&#160;&#160;Indicates the end of the RDF document. \n &#160;&#160;&#160;Receiving this statement ensures that the reader has got the whole document.\n\n &#160;&#160;&#160;Use cases:\n &#160;&#160;&#160;➜ Streamed documents, where document length is not known from the start.\n &#160;&#160;&#160;➜ Using TriG/Turtle as a replacement for JSON&#45;LD. An incomplete JSON&#45;LD document is easy to detect,\n &#160;&#160;&#160;&#160;&#160;end with this property TriG/Turtle is now on par with JSON&#45;LD in terms of document integrity detection.\n &#160;|Language: en</title>
<path fill="none" stroke="black" d="M82.15,-844.3C132.42,-846.65 245.71,-851.95 365.56,-857.56"/>
<polygon fill="black" stroke="black" points="365.53,-861.07 375.68,-858.04 365.86,-854.07 365.53,-861.07"/>
<text text-anchor="middle" x="241.89" y="-860.82" font-family="Times,serif" font-size="14.00">rdfs:comment</text>
</g>
<!-- Rcomment -->
<g id="node12" class="node">
<title>Rcomment</title>
<ellipse fill="none" stroke="blue" cx="53.95" cy="-688.02" rx="53.89" ry="18"/>
<text text-anchor="middle" x="53.95" y="-684.32" font-family="Times,serif" font-size="14.00">comment</text>
</g>
<!-- Rcomment&#45;&gt;Rrdf:Property -->
<g id="edge10" class="edge">
<title>Rcomment&#45;&gt;Rrdf:Property</title>
<path fill="none" stroke="black" d="M94.85,-699.81C104.92,-702.48 115.75,-705.09 125.89,-707.02 324.16,-744.86 562.3,-757.22 682.45,-761.19"/>
<polygon fill="black" stroke="black" points="682.54,-764.69 692.65,-761.51 682.77,-757.69 682.54,-764.69"/>
<text text-anchor="middle" x="241.89" y="-743.82" font-family="Times,serif" font-size="14.00">rdf:type</text>
</g>
<!-- L\n &#160;&#160;&#160;Comment in Markdown format. The leading N whitespace characters are ignored for each line. \n &#160;&#160;&#160;N = min(nb of leading ws chars in each line that has non&#45;ws chars)\n &#160;|Language: en -->
<g id="node13" class="node">
<title>L\n &#160;&#160;&#160;Comment in Markdown format. The leading N whitespace characters are ignored for each line. \n &#160;&#160;&#160;N = min(nb of leading ws chars in each line that has non&#45;ws chars)\n &#160;|Language: en</title>
<polygon fill="none" stroke="black" points="408.89,-649.52 408.89,-726.52 1112.89,-726.52 1112.89,-649.52 408.89,-649.52"/>
<text text-anchor="middle" x="760.89" y="-695.32" font-family="Times,serif" font-size="14.00"> Comment in Markdown format. The leading N whitespace characters are ignored for each line. </text>
<text text-anchor="middle" x="760.89" y="-680.32" font-family="Times,serif" font-size="14.00"> N = min(nb of leading ws chars in each line that has non&#45;ws chars)</text>
<polyline fill="none" stroke="black" points="408.89,-672.52 1112.89,-672.52 "/>
<text text-anchor="middle" x="760.89" y="-657.32" font-family="Times,serif" font-size="14.00">Language: en</text>
</g>
<!-- Rcomment&#45;&gt;L\n &#160;&#160;&#160;Comment in Markdown format. The leading N whitespace characters are ignored for each line. \n &#160;&#160;&#160;N = min(nb of leading ws chars in each line that has non&#45;ws chars)\n &#160;|Language: en -->
<g id="edge11" class="edge">
<title>Rcomment&#45;&gt;L\n &#160;&#160;&#160;Comment in Markdown format. The leading N whitespace characters are ignored for each line. \n &#160;&#160;&#160;N = min(nb of leading ws chars in each line that has non&#45;ws chars)\n &#160;|Language: en</title>
<path fill="none" stroke="black" d="M107.93,-688.02C171.65,-688.02 284.32,-688.02 398.27,-688.02"/>
<polygon fill="black" stroke="black" points="398.59,-691.52 408.59,-688.02 398.59,-684.52 398.59,-691.52"/>
<text text-anchor="middle" x="241.89" y="-691.82" font-family="Times,serif" font-size="14.00">rdfs:comment</text>
</g>
<!-- Rrdf:langString -->
<g id="node14" class="node">
<title>Rrdf:langString</title>
<ellipse fill="none" stroke="blue" cx="760.89" cy="-613.02" rx="76.89" ry="18"/>
<text text-anchor="middle" x="760.89" y="-609.32" font-family="Times,serif" font-size="14.00">rdf:langString</text>
</g>
<!-- Rcomment&#45;&gt;Rrdf:langString -->
<g id="edge12" class="edge">
<title>Rcomment&#45;&gt;Rrdf:langString</title>
<path fill="none" stroke="black" d="M94.85,-676.24C104.92,-673.57 115.75,-670.96 125.89,-669.02 319.88,-632 552.02,-619.38 674.49,-615.13"/>
<polygon fill="black" stroke="black" points="674.68,-618.63 684.55,-614.79 674.44,-611.63 674.68,-618.63"/>
<text text-anchor="middle" x="241.89" y="-672.82" font-family="Times,serif" font-size="14.00">rdfs:range</text>
</g>
<!-- RanyIRI -->
<g id="node15" class="node">
<title>RanyIRI</title>
<ellipse fill="none" stroke="blue" cx="53.95" cy="-1055.02" rx="40.89" ry="18"/>
<text text-anchor="middle" x="53.95" y="-1051.32" font-family="Times,serif" font-size="14.00">anyIRI</text>
</g>
<!-- Rxsd:anyURI -->
<g id="node16" class="node">
<title>Rxsd:anyURI</title>
<ellipse fill="none" stroke="blue" cx="760.89" cy="-1109.02" rx="64.19" ry="18"/>
<text text-anchor="middle" x="760.89" y="-1105.32" font-family="Times,serif" font-size="14.00">xsd:anyURI</text>
</g>
<!-- RanyIRI&#45;&gt;Rxsd:anyURI -->
<g id="edge13" class="edge">
<title>RanyIRI&#45;&gt;Rxsd:anyURI</title>
<path fill="none" stroke="black" d="M87.84,-1065.35C99.72,-1068.67 113.3,-1072.01 125.89,-1074.02 326.86,-1106.13 567.7,-1110.13 686.38,-1109.87"/>
<polygon fill="black" stroke="black" points="686.45,-1113.37 696.44,-1109.83 686.43,-1106.37 686.45,-1113.37"/>
<text text-anchor="middle" x="241.89" y="-1101.82" font-family="Times,serif" font-size="14.00">rdfs:subClassOf</text>
</g>
<!-- Rrdfs:Datatype -->
<g id="node17" class="node">
<title>Rrdfs:Datatype</title>
<ellipse fill="none" stroke="blue" cx="760.89" cy="-1055.02" rx="74.99" ry="18"/>
<text text-anchor="middle" x="760.89" y="-1051.32" font-family="Times,serif" font-size="14.00">rdfs:Datatype</text>
</g>
<!-- RanyIRI&#45;&gt;Rrdfs:Datatype -->
<g id="edge14" class="edge">
<title>RanyIRI&#45;&gt;Rrdfs:Datatype</title>
<path fill="none" stroke="black" d="M95.12,-1055.02C206.91,-1055.02 523.37,-1055.02 675.79,-1055.02"/>
<polygon fill="black" stroke="black" points="676.03,-1058.52 686.03,-1055.02 676.03,-1051.52 676.03,-1058.52"/>
<text text-anchor="middle" x="241.89" y="-1058.82" font-family="Times,serif" font-size="14.00">rdfs:subClassOf</text>
</g>
<!-- LNon&#45;dereferenceable IRI (does not contain RDF). Same as xsd:anyURI, but fixes the typo.|Language: en -->
<g id="node18" class="node">
<title>LNon&#45;dereferenceable IRI (does not contain RDF). Same as xsd:anyURI, but fixes the typo.|Language: en</title>
<polygon fill="none" stroke="black" points="433.39,-972.02 433.39,-1018.02 1088.39,-1018.02 1088.39,-972.02 433.39,-972.02"/>
<text text-anchor="middle" x="760.89" y="-1002.82" font-family="Times,serif" font-size="14.00">Non&#45;dereferenceable IRI (does not contain RDF). Same as xsd:anyURI, but fixes the typo.</text>
<polyline fill="none" stroke="black" points="433.39,-995.02 1088.39,-995.02 "/>
<text text-anchor="middle" x="760.89" y="-979.82" font-family="Times,serif" font-size="14.00">Language: en</text>
</g>
<!-- RanyIRI&#45;&gt;LNon&#45;dereferenceable IRI (does not contain RDF). Same as xsd:anyURI, but fixes the typo.|Language: en -->
<g id="edge15" class="edge">
<title>RanyIRI&#45;&gt;LNon&#45;dereferenceable IRI (does not contain RDF). Same as xsd:anyURI, but fixes the typo.|Language: en</title>
<path fill="none" stroke="black" d="M87.86,-1044.76C99.73,-1041.45 113.31,-1038.1 125.89,-1036.02 221.68,-1020.26 326.54,-1010.49 422.91,-1004.45"/>
<polygon fill="black" stroke="black" points="423.34,-1007.93 433.11,-1003.83 422.91,-1000.95 423.34,-1007.93"/>
<text text-anchor="middle" x="241.89" y="-1039.82" font-family="Times,serif" font-size="14.00">rdfs:comment</text>
</g>
</g>
</svg>

